solid OpenSCAD_Model
  facet normal -1 0 0
    outer loop
      vertex -30 -5 0
      vertex -30 -15 5
      vertex -30 -5 15
    endloop
  endfacet
  facet normal -1 0 0
    outer loop
      vertex -30 -30 0
      vertex -30 -15 5
      vertex -30 -5 0
    endloop
  endfacet
  facet normal -1 -0 0
    outer loop
      vertex -30 -15 5
      vertex -30 -30 0
      vertex -30 -30 5
    endloop
  endfacet
  facet normal -1 -0 0
    outer loop
      vertex -30 -5 15
      vertex -30 -15 5
      vertex -30 -15 15
    endloop
  endfacet
  facet normal 0 0 1
    outer loop
      vertex -25 -15 5
      vertex -30 -15 5
      vertex -25 -25 5
    endloop
  endfacet
  facet normal -0 0 1
    outer loop
      vertex -25 -25 5
      vertex -22.5 -30 5
      vertex -22.5 -25 5
    endloop
  endfacet
  facet normal 0 0 1
    outer loop
      vertex -30 -30 5
      vertex -25 -25 5
      vertex -30 -15 5
    endloop
  endfacet
  facet normal 0 0 1
    outer loop
      vertex -25 -25 5
      vertex -30 -30 5
      vertex -22.5 -30 5
    endloop
  endfacet
  facet normal 1 -0 0
    outer loop
      vertex -22.5 -30 5
      vertex -22.5 -25 0
      vertex -22.5 -25 5
    endloop
  endfacet
  facet normal 1 0 0
    outer loop
      vertex -22.5 -25 0
      vertex -22.5 -30 5
      vertex -22.5 -30 0
    endloop
  endfacet
  facet normal 0 0 -1
    outer loop
      vertex -22.5 0 0
      vertex -30 0 0
      vertex -22.5 5 0
    endloop
  endfacet
  facet normal 0 0 -1
    outer loop
      vertex -22.5 -30 0
      vertex -30 -30 0
      vertex -22.5 -25 0
    endloop
  endfacet
  facet normal 0 0 -1
    outer loop
      vertex -22.5 -25 0
      vertex -20 -22.5 0
      vertex -20 -25 0
    endloop
  endfacet
  facet normal -0 0 -1
    outer loop
      vertex -20 -22.5 0
      vertex -22.5 -25 0
      vertex -20 -17.5 0
    endloop
  endfacet
  facet normal 0 0 -1
    outer loop
      vertex -30 -5 0
      vertex -20 -17.5 0
      vertex -22.5 -25 0
    endloop
  endfacet
  facet normal 0 0 -1
    outer loop
      vertex -20 15 0
      vertex -7.5 20 0
      vertex -7.5 15 0
    endloop
  endfacet
  facet normal 0 0 -1
    outer loop
      vertex -7.5 20 0
      vertex -15 25 0
      vertex -10 30 0
    endloop
  endfacet
  facet normal -0 0 -1
    outer loop
      vertex -7.5 20 0
      vertex -20 15 0
      vertex -15 25 0
    endloop
  endfacet
  facet normal 0 0 -1
    outer loop
      vertex -22.5 5 0
      vertex -30 25 0
      vertex -20 12.5 0
    endloop
  endfacet
  facet normal 0 0 -1
    outer loop
      vertex -20 12.5 0
      vertex -30 25 0
      vertex -20 15 0
    endloop
  endfacet
  facet normal 0 0 -1
    outer loop
      vertex -20 15 0
      vertex -30 25 0
      vertex -15 25 0
    endloop
  endfacet
  facet normal 0 0 -1
    outer loop
      vertex -7.5 20 0
      vertex -5 22.5 0
      vertex -5 20 0
    endloop
  endfacet
  facet normal 0 0 -1
    outer loop
      vertex -10 30 0
      vertex -5 22.5 0
      vertex -7.5 20 0
    endloop
  endfacet
  facet normal 0 0 -1
    outer loop
      vertex -5 22.5 0
      vertex -10 30 0
      vertex -5 27.5 0
    endloop
  endfacet
  facet normal 0 0 -1
    outer loop
      vertex -5 27.5 0
      vertex -10 30 0
      vertex -5 35 0
    endloop
  endfacet
  facet normal -0 0 -1
    outer loop
      vertex -5 35 0
      vertex -10 30 0
      vertex -10 35 0
    endloop
  endfacet
  facet normal 0 0 -1
    outer loop
      vertex -15 7.5 0
      vertex 0 0 0
      vertex -15 0 0
    endloop
  endfacet
  facet normal 0 0 -1
    outer loop
      vertex 0 0 0
      vertex -15 7.5 0
      vertex 0 10 0
    endloop
  endfacet
  facet normal 0 0 -1
    outer loop
      vertex -15 7.5 0
      vertex -15 10 0
      vertex 0 10 0
    endloop
  endfacet
  facet normal 0 0 -1
    outer loop
      vertex -20 7.5 0
      vertex -15 10 0
      vertex -15 7.5 0
    endloop
  endfacet
  facet normal 0 0 -1
    outer loop
      vertex -20 12.5 0
      vertex -15 10 0
      vertex -20 7.5 0
    endloop
  endfacet
  facet normal 0 0 -1
    outer loop
      vertex -15 10 0
      vertex -20 12.5 0
      vertex -15 12.5 0
    endloop
  endfacet
  facet normal 0 0 -1
    outer loop
      vertex -20 -15 0
      vertex 0 -5 0
      vertex 0 -15 0
    endloop
  endfacet
  facet normal 0 0 -1
    outer loop
      vertex -30 -5 0
      vertex -22.5 -25 0
      vertex -30 -30 0
    endloop
  endfacet
  facet normal 0 0 -1
    outer loop
      vertex -20 -15 0
      vertex -30 -5 0
      vertex 0 -5 0
    endloop
  endfacet
  facet normal 0 0 -1
    outer loop
      vertex -20 -17.5 0
      vertex -30 -5 0
      vertex -20 -15 0
    endloop
  endfacet
  facet normal 0 0 -1
    outer loop
      vertex 7.5 -30 0
      vertex 0 -20 0
      vertex 7.5 -25 0
    endloop
  endfacet
  facet normal 0 0 -1
    outer loop
      vertex -15 -30 0
      vertex 0 -20 0
      vertex 7.5 -30 0
    endloop
  endfacet
  facet normal 0 0 -1
    outer loop
      vertex -15 -22.5 0
      vertex 0 -20 0
      vertex -15 -30 0
    endloop
  endfacet
  facet normal 0 0 -1
    outer loop
      vertex -15 -22.5 0
      vertex -15 -20 0
      vertex 0 -20 0
    endloop
  endfacet
  facet normal 0 0 -1
    outer loop
      vertex -20 -22.5 0
      vertex -15 -20 0
      vertex -15 -22.5 0
    endloop
  endfacet
  facet normal 0 0 -1
    outer loop
      vertex -20 -17.5 0
      vertex -15 -20 0
      vertex -20 -22.5 0
    endloop
  endfacet
  facet normal 0 0 -1
    outer loop
      vertex -15 -20 0
      vertex -20 -17.5 0
      vertex -15 -17.5 0
    endloop
  endfacet
  facet normal 0 0 -1
    outer loop
      vertex 30 -30 0
      vertex 22.5 -15 0
      vertex 30 -15 0
    endloop
  endfacet
  facet normal 0 0 -1
    outer loop
      vertex 30 -30 0
      vertex 15 -22.5 0
      vertex 22.5 -15 0
    endloop
  endfacet
  facet normal 0 0 -1
    outer loop
      vertex 15 -22.5 0
      vertex 30 -30 0
      vertex 15 -30 0
    endloop
  endfacet
  facet normal 0 0 -1
    outer loop
      vertex 22.5 -10 0
      vertex 25 -7.5 0
      vertex 25 -10 0
    endloop
  endfacet
  facet normal -0 0 -1
    outer loop
      vertex 25 -7.5 0
      vertex 22.5 -10 0
      vertex 25 -2.5 0
    endloop
  endfacet
  facet normal 0 0 -1
    outer loop
      vertex 0 0 0
      vertex 25 -2.5 0
      vertex 22.5 -10 0
    endloop
  endfacet
  facet normal 0 0 -1
    outer loop
      vertex 25 -2.5 0
      vertex 0 0 0
      vertex 25 7.5 0
    endloop
  endfacet
  facet normal 0 0 -1
    outer loop
      vertex 0 10 0
      vertex 25 7.5 0
      vertex 0 0 0
    endloop
  endfacet
  facet normal 0 0 -1
    outer loop
      vertex 25 -7.5 0
      vertex 30 -2.5 0
      vertex 30 -7.5 0
    endloop
  endfacet
  facet normal -0 0 -1
    outer loop
      vertex 30 -2.5 0
      vertex 25 -7.5 0
      vertex 25 -2.5 0
    endloop
  endfacet
  facet normal 0 0 -1
    outer loop
      vertex 25 7.5 0
      vertex 30 12.5 0
      vertex 30 7.5 0
    endloop
  endfacet
  facet normal -0 0 -1
    outer loop
      vertex 30 12.5 0
      vertex 25 7.5 0
      vertex 25 12.5 0
    endloop
  endfacet
  facet normal 0 0 -1
    outer loop
      vertex 25 15 0
      vertex 30 25 0
      vertex 30 15 0
    endloop
  endfacet
  facet normal 0 0 -1
    outer loop
      vertex 15 -17.5 0
      vertex 22.5 -15 0
      vertex 15 -22.5 0
    endloop
  endfacet
  facet normal 0 0 -1
    outer loop
      vertex 15 -15 0
      vertex 22.5 -15 0
      vertex 15 -17.5 0
    endloop
  endfacet
  facet normal 0 0 -1
    outer loop
      vertex 22.5 -15 0
      vertex 15 -15 0
      vertex 22.5 -10 0
    endloop
  endfacet
  facet normal 0 0 -1
    outer loop
      vertex 10 -15 0
      vertex 22.5 -10 0
      vertex 15 -15 0
    endloop
  endfacet
  facet normal 0 0 -1
    outer loop
      vertex 0 -5 0
      vertex 22.5 -10 0
      vertex 10 -15 0
    endloop
  endfacet
  facet normal 0 0 -1
    outer loop
      vertex 25 7.5 0
      vertex 0 10 0
      vertex 25 12.5 0
    endloop
  endfacet
  facet normal 0 0 -1
    outer loop
      vertex 0 -15 0
      vertex 10 -17.5 0
      vertex 0 -20 0
    endloop
  endfacet
  facet normal 0 0 -1
    outer loop
      vertex 10 -17.5 0
      vertex 0 -15 0
      vertex 10 -15 0
    endloop
  endfacet
  facet normal 0 0 -1
    outer loop
      vertex 0 -5 0
      vertex 10 -15 0
      vertex 0 -15 0
    endloop
  endfacet
  facet normal 0 0 -1
    outer loop
      vertex 22.5 -10 0
      vertex 0 -5 0
      vertex 0 0 0
    endloop
  endfacet
  facet normal -0 0 -1
    outer loop
      vertex 25 12.5 0
      vertex 0 10 0
      vertex 25 15 0
    endloop
  endfacet
  facet normal 0 0 -1
    outer loop
      vertex 0 22.5 0
      vertex 25 15 0
      vertex 0 10 0
    endloop
  endfacet
  facet normal 0 0 -1
    outer loop
      vertex 0 25 0
      vertex 25 15 0
      vertex 0 22.5 0
    endloop
  endfacet
  facet normal 0 0 -1
    outer loop
      vertex 25 15 0
      vertex 0 25 0
      vertex 30 25 0
    endloop
  endfacet
  facet normal 0 0 -1
    outer loop
      vertex -5 22.5 0
      vertex 0 25 0
      vertex 0 22.5 0
    endloop
  endfacet
  facet normal 0 0 -1
    outer loop
      vertex -5 27.5 0
      vertex 0 25 0
      vertex -5 22.5 0
    endloop
  endfacet
  facet normal 0 0 -1
    outer loop
      vertex 0 25 0
      vertex -5 27.5 0
      vertex 0 27.5 0
    endloop
  endfacet
  facet normal -0 0 -1
    outer loop
      vertex -10 30 0
      vertex -15 25 0
      vertex -15 30 0
    endloop
  endfacet
  facet normal 0 0 -1
    outer loop
      vertex -22.5 5 0
      vertex -20 7.5 0
      vertex -20 5 0
    endloop
  endfacet
  facet normal -0 0 -1
    outer loop
      vertex -20 7.5 0
      vertex -22.5 5 0
      vertex -20 12.5 0
    endloop
  endfacet
  facet normal 0 0 -1
    outer loop
      vertex -30 25 0
      vertex -22.5 5 0
      vertex -30 0 0
    endloop
  endfacet
  facet normal 0 0 -1
    outer loop
      vertex 7.5 -25 0
      vertex 10 -22.5 0
      vertex 10 -25 0
    endloop
  endfacet
  facet normal 0 0 -1
    outer loop
      vertex 0 -20 0
      vertex 10 -22.5 0
      vertex 7.5 -25 0
    endloop
  endfacet
  facet normal 0 0 -1
    outer loop
      vertex 10 -22.5 0
      vertex 0 -20 0
      vertex 10 -17.5 0
    endloop
  endfacet
  facet normal 0 0 -1
    outer loop
      vertex 10 -22.5 0
      vertex 15 -17.5 0
      vertex 15 -22.5 0
    endloop
  endfacet
  facet normal -0 0 -1
    outer loop
      vertex 15 -17.5 0
      vertex 10 -22.5 0
      vertex 10 -17.5 0
    endloop
  endfacet
  facet normal 0 -1 0
    outer loop
      vertex -30 -30 0
      vertex -22.5 -30 5
      vertex -30 -30 5
    endloop
  endfacet
  facet normal 0 -1 -0
    outer loop
      vertex -22.5 -30 5
      vertex -30 -30 0
      vertex -22.5 -30 0
    endloop
  endfacet
  facet normal 0 -1 0
    outer loop
      vertex 15 -15 2.5
      vertex 22.5 -15 5
      vertex 15 -15 5
    endloop
  endfacet
  facet normal 0 -1 -0
    outer loop
      vertex 22.5 -15 5
      vertex 15 -15 2.5
      vertex 22.5 -15 2.5
    endloop
  endfacet
  facet normal 0 1 -0
    outer loop
      vertex 30 -15 0
      vertex 22.5 -15 2.5
      vertex 30 -15 2.5
    endloop
  endfacet
  facet normal 0 1 0
    outer loop
      vertex 22.5 -15 2.5
      vertex 30 -15 0
      vertex 22.5 -15 0
    endloop
  endfacet
  facet normal 0 1 -0
    outer loop
      vertex 5 -15 2.5
      vertex 0 -15 5
      vertex 5 -15 5
    endloop
  endfacet
  facet normal 0 1 0
    outer loop
      vertex 0 -15 5
      vertex 5 -15 2.5
      vertex 0 -15 2.5
    endloop
  endfacet
  facet normal 0 -1 0
    outer loop
      vertex -20 -15 15
      vertex 0 -15 5
      vertex 0 -15 15
    endloop
  endfacet
  facet normal 0 -1 0
    outer loop
      vertex -20 -15 0
      vertex 0 -15 5
      vertex -20 -15 15
    endloop
  endfacet
  facet normal 0 -1 -0
    outer loop
      vertex 0 -15 5
      vertex -20 -15 0
      vertex 0 -15 2.5
    endloop
  endfacet
  facet normal 0 -1 -0
    outer loop
      vertex 0 -15 2.5
      vertex -20 -15 0
      vertex 0 -15 0
    endloop
  endfacet
  facet normal 0 -1 0
    outer loop
      vertex 10 -15 0
      vertex 15 -15 2.5
      vertex 10 -15 2.5
    endloop
  endfacet
  facet normal 0 -1 -0
    outer loop
      vertex 15 -15 2.5
      vertex 10 -15 0
      vertex 15 -15 0
    endloop
  endfacet
  facet normal 0 -1 0
    outer loop
      vertex -30 -15 5
      vertex -25 -15 15
      vertex -30 -15 15
    endloop
  endfacet
  facet normal 0 -1 -0
    outer loop
      vertex -25 -15 15
      vertex -30 -15 5
      vertex -25 -15 5
    endloop
  endfacet
  facet normal -1 0 0
    outer loop
      vertex -25 -25 5
      vertex -25 -15 15
      vertex -25 -15 5
    endloop
  endfacet
  facet normal -1 -0 0
    outer loop
      vertex -25 -15 15
      vertex -25 -25 5
      vertex -25 -25 15
    endloop
  endfacet
  facet normal 0 0 1
    outer loop
      vertex -27.5 -5 15
      vertex -30 -5 15
      vertex -27.5 -10 15
    endloop
  endfacet
  facet normal 0 0 1
    outer loop
      vertex -12.5 -5 15
      vertex -17.5 -5 15
      vertex -12.5 -10 15
    endloop
  endfacet
  facet normal 0 0 1
    outer loop
      vertex -2.5 -10 15
      vertex 0 -5 15
      vertex -2.5 -5 15
    endloop
  endfacet
  facet normal 0 0 1
    outer loop
      vertex 0 -5 15
      vertex -2.5 -10 15
      vertex 0 -15 15
    endloop
  endfacet
  facet normal -0 0 1
    outer loop
      vertex -12.5 -10 15
      vertex 0 -15 15
      vertex -2.5 -10 15
    endloop
  endfacet
  facet normal 0 0 1
    outer loop
      vertex -17.5 -10 15
      vertex -12.5 -10 15
      vertex -17.5 -5 15
    endloop
  endfacet
  facet normal 0 0 1
    outer loop
      vertex -20 -15 15
      vertex -12.5 -10 15
      vertex -17.5 -10 15
    endloop
  endfacet
  facet normal 0 0 1
    outer loop
      vertex -12.5 -10 15
      vertex -20 -15 15
      vertex 0 -15 15
    endloop
  endfacet
  facet normal 0 0 1
    outer loop
      vertex -20 -15 15
      vertex -25 -15 15
      vertex -20 -25 15
    endloop
  endfacet
  facet normal 0 0 1
    outer loop
      vertex -17.5 -10 15
      vertex -25 -15 15
      vertex -20 -15 15
    endloop
  endfacet
  facet normal -0 0 1
    outer loop
      vertex -27.5 -10 15
      vertex -25 -15 15
      vertex -17.5 -10 15
    endloop
  endfacet
  facet normal 0 0 1
    outer loop
      vertex -30 -15 15
      vertex -27.5 -10 15
      vertex -30 -5 15
    endloop
  endfacet
  facet normal 0 0 1
    outer loop
      vertex -27.5 -10 15
      vertex -30 -15 15
      vertex -25 -15 15
    endloop
  endfacet
  facet normal 0 0 1
    outer loop
      vertex -20 -25 15
      vertex -25 -15 15
      vertex -25 -25 15
    endloop
  endfacet
  facet normal 1 0 0
    outer loop
      vertex -20 -15 15
      vertex -20 -17.5 5
      vertex -20 -15 0
    endloop
  endfacet
  facet normal 1 0 0
    outer loop
      vertex -20 -15 15
      vertex -20 -22.5 5
      vertex -20 -17.5 5
    endloop
  endfacet
  facet normal 1 -0 0
    outer loop
      vertex -20 -25 15
      vertex -20 -22.5 5
      vertex -20 -15 15
    endloop
  endfacet
  facet normal 1 0 0
    outer loop
      vertex -20 -25 0
      vertex -20 -22.5 5
      vertex -20 -25 15
    endloop
  endfacet
  facet normal 1 0 0
    outer loop
      vertex -20 -22.5 5
      vertex -20 -25 0
      vertex -20 -22.5 0
    endloop
  endfacet
  facet normal 1 0 0
    outer loop
      vertex -20 -15 0
      vertex -20 -17.5 5
      vertex -20 -17.5 0
    endloop
  endfacet
  facet normal 0 -1 0
    outer loop
      vertex -22.5 -25 5
      vertex -25 -25 15
      vertex -25 -25 5
    endloop
  endfacet
  facet normal 0 -1 0
    outer loop
      vertex -25 -25 15
      vertex -22.5 -25 5
      vertex -20 -25 15
    endloop
  endfacet
  facet normal 0 -1 0
    outer loop
      vertex -20 -25 0
      vertex -22.5 -25 5
      vertex -22.5 -25 0
    endloop
  endfacet
  facet normal 0 -1 0
    outer loop
      vertex -22.5 -25 5
      vertex -20 -25 0
      vertex -20 -25 15
    endloop
  endfacet
  facet normal -0 0 1
    outer loop
      vertex -20 -17.5 5
      vertex -15 -20 5
      vertex -15 -17.5 5
    endloop
  endfacet
  facet normal 0 0 1
    outer loop
      vertex -20 -22.5 5
      vertex -15 -20 5
      vertex -20 -17.5 5
    endloop
  endfacet
  facet normal 0 0 1
    outer loop
      vertex -15 -20 5
      vertex -20 -22.5 5
      vertex -15 -22.5 5
    endloop
  endfacet
  facet normal -1 0 0
    outer loop
      vertex -15 -22.5 0
      vertex -15 -30 0
      vertex -15 -22.5 5
    endloop
  endfacet
  facet normal -1 0 0
    outer loop
      vertex -15 -22.5 5
      vertex -15 -20 15
      vertex -15 -20 5
    endloop
  endfacet
  facet normal -1 0 0
    outer loop
      vertex -15 -30 15
      vertex -15 -22.5 5
      vertex -15 -30 0
    endloop
  endfacet
  facet normal -1 0 0
    outer loop
      vertex -15 -22.5 5
      vertex -15 -30 15
      vertex -15 -20 15
    endloop
  endfacet
  facet normal 1 -0 0
    outer loop
      vertex -15 -20 5
      vertex -15 -17.5 0
      vertex -15 -17.5 5
    endloop
  endfacet
  facet normal 1 0 0
    outer loop
      vertex -15 -17.5 0
      vertex -15 -20 5
      vertex -15 -20 0
    endloop
  endfacet
  facet normal 0 1 -0
    outer loop
      vertex -15 -17.5 0
      vertex -20 -17.5 5
      vertex -15 -17.5 5
    endloop
  endfacet
  facet normal 0 1 0
    outer loop
      vertex -20 -17.5 5
      vertex -15 -17.5 0
      vertex -20 -17.5 0
    endloop
  endfacet
  facet normal 0 -1 0
    outer loop
      vertex -20 -22.5 0
      vertex -15 -22.5 5
      vertex -20 -22.5 5
    endloop
  endfacet
  facet normal 0 -1 -0
    outer loop
      vertex -15 -22.5 5
      vertex -20 -22.5 0
      vertex -15 -22.5 0
    endloop
  endfacet
  facet normal -1 0 0
    outer loop
      vertex -12.5 -25 15
      vertex -12.5 -20 25
      vertex -12.5 -20 15
    endloop
  endfacet
  facet normal -1 -0 0
    outer loop
      vertex -12.5 -20 25
      vertex -12.5 -25 15
      vertex -12.5 -25 25
    endloop
  endfacet
  facet normal -0 0 1
    outer loop
      vertex -12.5 -20 25
      vertex -2.5 -25 25
      vertex -2.5 -20 25
    endloop
  endfacet
  facet normal 0 0 1
    outer loop
      vertex -2.5 -25 25
      vertex -12.5 -20 25
      vertex -12.5 -25 25
    endloop
  endfacet
  facet normal 1 -0 0
    outer loop
      vertex -2.5 -25 25
      vertex -2.5 -20 15
      vertex -2.5 -20 25
    endloop
  endfacet
  facet normal 1 0 0
    outer loop
      vertex -2.5 -20 15
      vertex -2.5 -25 25
      vertex -2.5 -25 15
    endloop
  endfacet
  facet normal 0 1 -0
    outer loop
      vertex 0 -20 5
      vertex -2.5 -20 15
      vertex 0 -20 15
    endloop
  endfacet
  facet normal 0 1 0
    outer loop
      vertex -2.5 -20 15
      vertex 0 -20 5
      vertex -12.5 -20 15
    endloop
  endfacet
  facet normal 0 1 0
    outer loop
      vertex -15 -20 5
      vertex -12.5 -20 15
      vertex 0 -20 5
    endloop
  endfacet
  facet normal 0 1 0
    outer loop
      vertex -12.5 -20 15
      vertex -15 -20 5
      vertex -15 -20 15
    endloop
  endfacet
  facet normal 0 1 -0
    outer loop
      vertex 0 -20 0
      vertex -15 -20 5
      vertex 0 -20 5
    endloop
  endfacet
  facet normal 0 1 0
    outer loop
      vertex -15 -20 5
      vertex 0 -20 0
      vertex -15 -20 0
    endloop
  endfacet
  facet normal 0 1 -0
    outer loop
      vertex -2.5 -20 15
      vertex -12.5 -20 25
      vertex -2.5 -20 25
    endloop
  endfacet
  facet normal 0 1 0
    outer loop
      vertex -12.5 -20 25
      vertex -2.5 -20 15
      vertex -12.5 -20 15
    endloop
  endfacet
  facet normal 0 0 1
    outer loop
      vertex -12.5 -20 15
      vertex -15 -20 15
      vertex -12.5 -25 15
    endloop
  endfacet
  facet normal 0 0 1
    outer loop
      vertex -2.5 -25 15
      vertex 0 -20 15
      vertex -2.5 -20 15
    endloop
  endfacet
  facet normal 0 0 1
    outer loop
      vertex 0 -20 15
      vertex -2.5 -25 15
      vertex 0 -30 15
    endloop
  endfacet
  facet normal -0 0 1
    outer loop
      vertex -12.5 -25 15
      vertex 0 -30 15
      vertex -2.5 -25 15
    endloop
  endfacet
  facet normal 0 0 1
    outer loop
      vertex -12.5 -25 15
      vertex -15 -30 15
      vertex 0 -30 15
    endloop
  endfacet
  facet normal 0 0 1
    outer loop
      vertex -15 -30 15
      vertex -12.5 -25 15
      vertex -15 -20 15
    endloop
  endfacet
  facet normal 0 -1 0
    outer loop
      vertex -12.5 -25 15
      vertex -2.5 -25 25
      vertex -12.5 -25 25
    endloop
  endfacet
  facet normal 0 -1 -0
    outer loop
      vertex -2.5 -25 25
      vertex -12.5 -25 15
      vertex -2.5 -25 15
    endloop
  endfacet
  facet normal -1 0 0
    outer loop
      vertex 0 -20 0
      vertex 0 -15 2.5
      vertex 0 -15 0
    endloop
  endfacet
  facet normal -1 0 0
    outer loop
      vertex 0 -20 5
      vertex 0 -15 2.5
      vertex 0 -20 0
    endloop
  endfacet
  facet normal -1 0 0
    outer loop
      vertex 0 -15 2.5
      vertex 0 -20 5
      vertex 0 -15 5
    endloop
  endfacet
  facet normal 1 -0 0
    outer loop
      vertex 0 -30 15
      vertex 0 -20 5
      vertex 0 -20 15
    endloop
  endfacet
  facet normal 1 0 0
    outer loop
      vertex 0 -20 5
      vertex 0 -30 15
      vertex 0 -30 5
    endloop
  endfacet
  facet normal 0 -1 0
    outer loop
      vertex -15 -30 15
      vertex 0 -30 5
      vertex 0 -30 15
    endloop
  endfacet
  facet normal 0 -1 0
    outer loop
      vertex -15 -30 0
      vertex 0 -30 5
      vertex -15 -30 15
    endloop
  endfacet
  facet normal 0 -1 0
    outer loop
      vertex 7.5 -30 0
      vertex 0 -30 5
      vertex -15 -30 0
    endloop
  endfacet
  facet normal 0 -1 0
    outer loop
      vertex 0 -30 5
      vertex 7.5 -30 0
      vertex 7.5 -30 5
    endloop
  endfacet
  facet normal 0 0 1
    outer loop
      vertex 0 -20 5
      vertex 5 -15 5
      vertex 0 -15 5
    endloop
  endfacet
  facet normal -0 0 1
    outer loop
      vertex 5 -25 5
      vertex 7.5 -30 5
      vertex 7.5 -25 5
    endloop
  endfacet
  facet normal 0 0 1
    outer loop
      vertex 5 -15 5
      vertex 0 -20 5
      vertex 5 -25 5
    endloop
  endfacet
  facet normal 0 0 1
    outer loop
      vertex 0 -30 5
      vertex 5 -25 5
      vertex 0 -20 5
    endloop
  endfacet
  facet normal 0 0 1
    outer loop
      vertex 5 -25 5
      vertex 0 -30 5
      vertex 7.5 -30 5
    endloop
  endfacet
  facet normal 1 -0 0
    outer loop
      vertex 7.5 -30 5
      vertex 7.5 -25 0
      vertex 7.5 -25 5
    endloop
  endfacet
  facet normal 1 0 0
    outer loop
      vertex 7.5 -25 0
      vertex 7.5 -30 5
      vertex 7.5 -30 0
    endloop
  endfacet
  facet normal -1 0 0
    outer loop
      vertex 5 -15 5
      vertex 5 -13.3333 2.5
      vertex 5 -15 2.5
    endloop
  endfacet
  facet normal -1 0 0
    outer loop
      vertex 5 -13.3333 2.5
      vertex 5 -15 5
      vertex 5 -13.3333 15
    endloop
  endfacet
  facet normal -1 0 0
    outer loop
      vertex 5 -25 15
      vertex 5 -15 5
      vertex 5 -25 5
    endloop
  endfacet
  facet normal -1 0 0
    outer loop
      vertex 5 -15 5
      vertex 5 -25 15
      vertex 5 -13.3333 15
    endloop
  endfacet
  facet normal -0 0 1
    outer loop
      vertex 5 -13.3333 15
      vertex 10 -25 15
      vertex 10 -13.3333 15
    endloop
  endfacet
  facet normal 0 0 1
    outer loop
      vertex 10 -25 15
      vertex 5 -13.3333 15
      vertex 5 -25 15
    endloop
  endfacet
  facet normal 1 -0 0
    outer loop
      vertex 10 -17.5 5
      vertex 10 -13.3333 2.5
      vertex 10 -13.3333 15
    endloop
  endfacet
  facet normal 1 0 0
    outer loop
      vertex 10 -17.5 0
      vertex 10 -15 2.5
      vertex 10 -17.5 5
    endloop
  endfacet
  facet normal 1 0 0
    outer loop
      vertex 10 -13.3333 2.5
      vertex 10 -17.5 5
      vertex 10 -15 2.5
    endloop
  endfacet
  facet normal 1 -0 0
    outer loop
      vertex 10 -25 15
      vertex 10 -17.5 5
      vertex 10 -13.3333 15
    endloop
  endfacet
  facet normal 1 0 0
    outer loop
      vertex 10 -17.5 5
      vertex 10 -25 15
      vertex 10 -22.5 5
    endloop
  endfacet
  facet normal 1 0 0
    outer loop
      vertex 10 -25 0
      vertex 10 -22.5 5
      vertex 10 -25 15
    endloop
  endfacet
  facet normal 1 0 0
    outer loop
      vertex 10 -22.5 5
      vertex 10 -25 0
      vertex 10 -22.5 0
    endloop
  endfacet
  facet normal 1 0 0
    outer loop
      vertex 10 -15 2.5
      vertex 10 -17.5 0
      vertex 10 -15 0
    endloop
  endfacet
  facet normal 0 -1 0
    outer loop
      vertex 7.5 -25 5
      vertex 5 -25 15
      vertex 5 -25 5
    endloop
  endfacet
  facet normal 0 -1 0
    outer loop
      vertex 5 -25 15
      vertex 7.5 -25 5
      vertex 10 -25 15
    endloop
  endfacet
  facet normal 0 -1 0
    outer loop
      vertex 10 -25 0
      vertex 7.5 -25 5
      vertex 7.5 -25 0
    endloop
  endfacet
  facet normal 0 -1 0
    outer loop
      vertex 7.5 -25 5
      vertex 10 -25 0
      vertex 10 -25 15
    endloop
  endfacet
  facet normal -0 0 1
    outer loop
      vertex 10 -17.5 5
      vertex 15 -22.5 5
      vertex 15 -17.5 5
    endloop
  endfacet
  facet normal 0 0 1
    outer loop
      vertex 15 -22.5 5
      vertex 10 -17.5 5
      vertex 10 -22.5 5
    endloop
  endfacet
  facet normal -1 0 0
    outer loop
      vertex 15 -17.5 0
      vertex 15 -15 2.5
      vertex 15 -15 0
    endloop
  endfacet
  facet normal -1 -0 0
    outer loop
      vertex 15 -15 2.5
      vertex 15 -17.5 0
      vertex 15 -17.5 2.5
    endloop
  endfacet
  facet normal -1 0 0
    outer loop
      vertex 15 -30 0
      vertex 15 -22.5 2.5
      vertex 15 -22.5 0
    endloop
  endfacet
  facet normal -1 -0 0
    outer loop
      vertex 15 -22.5 2.5
      vertex 15 -30 0
      vertex 15 -30 2.5
    endloop
  endfacet
  facet normal 1 -0 0
    outer loop
      vertex 15 -22.5 5
      vertex 15 -17.5 2.5
      vertex 15 -17.5 5
    endloop
  endfacet
  facet normal 1 0 0
    outer loop
      vertex 15 -17.5 2.5
      vertex 15 -22.5 5
      vertex 15 -22.5 2.5
    endloop
  endfacet
  facet normal 0 1 -0
    outer loop
      vertex 15 -17.5 2.5
      vertex 10 -17.5 5
      vertex 15 -17.5 5
    endloop
  endfacet
  facet normal 0 1 0
    outer loop
      vertex 10 -17.5 0
      vertex 15 -17.5 2.5
      vertex 15 -17.5 0
    endloop
  endfacet
  facet normal 0 1 0
    outer loop
      vertex 15 -17.5 2.5
      vertex 10 -17.5 0
      vertex 10 -17.5 5
    endloop
  endfacet
  facet normal 0 -1 0
    outer loop
      vertex 10 -22.5 5
      vertex 15 -22.5 2.5
      vertex 15 -22.5 5
    endloop
  endfacet
  facet normal 0 -1 0
    outer loop
      vertex 10 -22.5 0
      vertex 15 -22.5 2.5
      vertex 10 -22.5 5
    endloop
  endfacet
  facet normal 0 -1 -0
    outer loop
      vertex 15 -22.5 2.5
      vertex 10 -22.5 0
      vertex 15 -22.5 0
    endloop
  endfacet
  facet normal 0 0 1
    outer loop
      vertex 28.3333 -26.6667 2.5
      vertex 30 -15 2.5
      vertex 28.3333 -16.6667 2.5
    endloop
  endfacet
  facet normal -0 0 1
    outer loop
      vertex 22.5 -15 2.5
      vertex 28.3333 -16.6667 2.5
      vertex 30 -15 2.5
    endloop
  endfacet
  facet normal 0 0 1
    outer loop
      vertex 22.5 -15 2.5
      vertex 18.3333 -16.6667 2.5
      vertex 28.3333 -16.6667 2.5
    endloop
  endfacet
  facet normal 0 0 1
    outer loop
      vertex 15 -17.5 2.5
      vertex 18.3333 -16.6667 2.5
      vertex 15 -15 2.5
    endloop
  endfacet
  facet normal -0 0 1
    outer loop
      vertex 15 -15 2.5
      vertex 18.3333 -16.6667 2.5
      vertex 22.5 -15 2.5
    endloop
  endfacet
  facet normal 0 0 1
    outer loop
      vertex 30 -15 2.5
      vertex 28.3333 -26.6667 2.5
      vertex 30 -30 2.5
    endloop
  endfacet
  facet normal -0 0 1
    outer loop
      vertex 18.3333 -26.6667 2.5
      vertex 30 -30 2.5
      vertex 28.3333 -26.6667 2.5
    endloop
  endfacet
  facet normal 0 0 1
    outer loop
      vertex 15 -22.5 2.5
      vertex 18.3333 -16.6667 2.5
      vertex 15 -17.5 2.5
    endloop
  endfacet
  facet normal 0 0 1
    outer loop
      vertex 18.3333 -16.6667 2.5
      vertex 15 -22.5 2.5
      vertex 18.3333 -26.6667 2.5
    endloop
  endfacet
  facet normal 0 0 1
    outer loop
      vertex 18.3333 -26.6667 2.5
      vertex 15 -30 2.5
      vertex 30 -30 2.5
    endloop
  endfacet
  facet normal 0 0 1
    outer loop
      vertex 15 -30 2.5
      vertex 18.3333 -26.6667 2.5
      vertex 15 -22.5 2.5
    endloop
  endfacet
  facet normal 1 -0 0
    outer loop
      vertex 30 -30 2.5
      vertex 30 -15 0
      vertex 30 -15 2.5
    endloop
  endfacet
  facet normal 1 0 0
    outer loop
      vertex 30 -15 0
      vertex 30 -30 2.5
      vertex 30 -30 0
    endloop
  endfacet
  facet normal 0 -1 0
    outer loop
      vertex 15 -30 0
      vertex 30 -30 2.5
      vertex 15 -30 2.5
    endloop
  endfacet
  facet normal 0 -1 -0
    outer loop
      vertex 30 -30 2.5
      vertex 15 -30 0
      vertex 30 -30 0
    endloop
  endfacet
  facet normal -1 0 0
    outer loop
      vertex 18.3333 -26.6667 2.5
      vertex 18.3333 -16.6667 17.5
      vertex 18.3333 -16.6667 2.5
    endloop
  endfacet
  facet normal -1 -0 0
    outer loop
      vertex 18.3333 -16.6667 17.5
      vertex 18.3333 -26.6667 2.5
      vertex 18.3333 -26.6667 17.5
    endloop
  endfacet
  facet normal 0 0 1
    outer loop
      vertex 27.5 -22.5 17.5
      vertex 28.3333 -16.6667 17.5
      vertex 27.5 -17.5 17.5
    endloop
  endfacet
  facet normal 0 0 1
    outer loop
      vertex 28.3333 -16.6667 17.5
      vertex 22.5 -17.5 17.5
      vertex 27.5 -17.5 17.5
    endloop
  endfacet
  facet normal 0 0 1
    outer loop
      vertex 22.5 -17.5 17.5
      vertex 18.3333 -16.6667 17.5
      vertex 22.5 -22.5 17.5
    endloop
  endfacet
  facet normal -0 0 1
    outer loop
      vertex 18.3333 -16.6667 17.5
      vertex 22.5 -17.5 17.5
      vertex 28.3333 -16.6667 17.5
    endloop
  endfacet
  facet normal 0 0 1
    outer loop
      vertex 28.3333 -16.6667 17.5
      vertex 27.5 -22.5 17.5
      vertex 28.3333 -26.6667 17.5
    endloop
  endfacet
  facet normal -0 0 1
    outer loop
      vertex 22.5 -22.5 17.5
      vertex 28.3333 -26.6667 17.5
      vertex 27.5 -22.5 17.5
    endloop
  endfacet
  facet normal 0 0 1
    outer loop
      vertex 22.5 -22.5 17.5
      vertex 18.3333 -26.6667 17.5
      vertex 28.3333 -26.6667 17.5
    endloop
  endfacet
  facet normal 0 0 1
    outer loop
      vertex 18.3333 -26.6667 17.5
      vertex 22.5 -22.5 17.5
      vertex 18.3333 -16.6667 17.5
    endloop
  endfacet
  facet normal 1 -0 0
    outer loop
      vertex 28.3333 -26.6667 17.5
      vertex 28.3333 -16.6667 2.5
      vertex 28.3333 -16.6667 17.5
    endloop
  endfacet
  facet normal 1 0 0
    outer loop
      vertex 28.3333 -16.6667 2.5
      vertex 28.3333 -26.6667 17.5
      vertex 28.3333 -26.6667 2.5
    endloop
  endfacet
  facet normal 0 -1 0
    outer loop
      vertex 18.3333 -26.6667 2.5
      vertex 28.3333 -26.6667 17.5
      vertex 18.3333 -26.6667 17.5
    endloop
  endfacet
  facet normal 0 -1 -0
    outer loop
      vertex 28.3333 -26.6667 17.5
      vertex 18.3333 -26.6667 2.5
      vertex 28.3333 -26.6667 2.5
    endloop
  endfacet
  facet normal 0 1 -0
    outer loop
      vertex 28.3333 -16.6667 2.5
      vertex 18.3333 -16.6667 17.5
      vertex 28.3333 -16.6667 17.5
    endloop
  endfacet
  facet normal 0 1 0
    outer loop
      vertex 18.3333 -16.6667 17.5
      vertex 28.3333 -16.6667 2.5
      vertex 18.3333 -16.6667 2.5
    endloop
  endfacet
  facet normal -1 0 0
    outer loop
      vertex 22.5 -22.5 17.5
      vertex 22.5 -17.5 33.75
      vertex 22.5 -17.5 17.5
    endloop
  endfacet
  facet normal -1 -0 0
    outer loop
      vertex 22.5 -17.5 33.75
      vertex 22.5 -22.5 17.5
      vertex 22.5 -22.5 33.75
    endloop
  endfacet
  facet normal -0 0 1
    outer loop
      vertex 22.5 -17.5 33.75
      vertex 27.5 -22.5 33.75
      vertex 27.5 -17.5 33.75
    endloop
  endfacet
  facet normal 0 0 1
    outer loop
      vertex 27.5 -22.5 33.75
      vertex 22.5 -17.5 33.75
      vertex 22.5 -22.5 33.75
    endloop
  endfacet
  facet normal 1 -0 0
    outer loop
      vertex 27.5 -22.5 33.75
      vertex 27.5 -17.5 17.5
      vertex 27.5 -17.5 33.75
    endloop
  endfacet
  facet normal 1 0 0
    outer loop
      vertex 27.5 -17.5 17.5
      vertex 27.5 -22.5 33.75
      vertex 27.5 -22.5 17.5
    endloop
  endfacet
  facet normal 0 1 -0
    outer loop
      vertex 27.5 -17.5 17.5
      vertex 22.5 -17.5 33.75
      vertex 27.5 -17.5 33.75
    endloop
  endfacet
  facet normal 0 1 0
    outer loop
      vertex 22.5 -17.5 33.75
      vertex 27.5 -17.5 17.5
      vertex 22.5 -17.5 17.5
    endloop
  endfacet
  facet normal 0 -1 0
    outer loop
      vertex 22.5 -22.5 17.5
      vertex 27.5 -22.5 33.75
      vertex 22.5 -22.5 33.75
    endloop
  endfacet
  facet normal 0 -1 -0
    outer loop
      vertex 27.5 -22.5 33.75
      vertex 22.5 -22.5 17.5
      vertex 27.5 -22.5 17.5
    endloop
  endfacet
  facet normal -1 0 0
    outer loop
      vertex -27.5 -10 15
      vertex -27.5 -5 25
      vertex -27.5 -5 15
    endloop
  endfacet
  facet normal -1 -0 0
    outer loop
      vertex -27.5 -5 25
      vertex -27.5 -10 15
      vertex -27.5 -10 25
    endloop
  endfacet
  facet normal -0 0 1
    outer loop
      vertex -27.5 -5 25
      vertex -17.5 -10 25
      vertex -17.5 -5 25
    endloop
  endfacet
  facet normal 0 0 1
    outer loop
      vertex -17.5 -10 25
      vertex -27.5 -5 25
      vertex -27.5 -10 25
    endloop
  endfacet
  facet normal 1 -0 0
    outer loop
      vertex -17.5 -10 25
      vertex -17.5 -5 15
      vertex -17.5 -5 25
    endloop
  endfacet
  facet normal 1 0 0
    outer loop
      vertex -17.5 -5 15
      vertex -17.5 -10 25
      vertex -17.5 -10 15
    endloop
  endfacet
  facet normal 0 1 -0
    outer loop
      vertex 0 -5 2.5
      vertex -2.5 -5 15
      vertex 0 -5 15
    endloop
  endfacet
  facet normal 0 1 0
    outer loop
      vertex -2.5 -5 15
      vertex 0 -5 2.5
      vertex -12.5 -5 15
    endloop
  endfacet
  facet normal 0 1 -0
    outer loop
      vertex 0 -5 0
      vertex -12.5 -5 15
      vertex 0 -5 2.5
    endloop
  endfacet
  facet normal 0 1 0
    outer loop
      vertex -12.5 -5 15
      vertex 0 -5 0
      vertex -17.5 -5 15
    endloop
  endfacet
  facet normal 0 1 0
    outer loop
      vertex -17.5 -5 15
      vertex -30 -5 0
      vertex -27.5 -5 15
    endloop
  endfacet
  facet normal 0 1 0
    outer loop
      vertex -17.5 -5 15
      vertex 0 -5 0
      vertex -30 -5 0
    endloop
  endfacet
  facet normal 0 1 0
    outer loop
      vertex -27.5 -5 15
      vertex -30 -5 0
      vertex -30 -5 15
    endloop
  endfacet
  facet normal 0 1 -0
    outer loop
      vertex -2.5 -5 15
      vertex -12.5 -5 20
      vertex -2.5 -5 20
    endloop
  endfacet
  facet normal 0 1 0
    outer loop
      vertex -12.5 -5 20
      vertex -2.5 -5 15
      vertex -12.5 -5 15
    endloop
  endfacet
  facet normal 0 1 -0
    outer loop
      vertex -17.5 -5 15
      vertex -27.5 -5 25
      vertex -17.5 -5 25
    endloop
  endfacet
  facet normal 0 1 0
    outer loop
      vertex -27.5 -5 25
      vertex -17.5 -5 15
      vertex -27.5 -5 15
    endloop
  endfacet
  facet normal 0 -1 0
    outer loop
      vertex -27.5 -10 15
      vertex -17.5 -10 25
      vertex -27.5 -10 25
    endloop
  endfacet
  facet normal 0 -1 -0
    outer loop
      vertex -17.5 -10 25
      vertex -27.5 -10 15
      vertex -17.5 -10 15
    endloop
  endfacet
  facet normal -1 0 0
    outer loop
      vertex -12.5 -10 15
      vertex -12.5 -5 20
      vertex -12.5 -5 15
    endloop
  endfacet
  facet normal -1 -0 0
    outer loop
      vertex -12.5 -5 20
      vertex -12.5 -10 15
      vertex -12.5 -10 20
    endloop
  endfacet
  facet normal -0 0 1
    outer loop
      vertex -12.5 -5 20
      vertex -2.5 -10 20
      vertex -2.5 -5 20
    endloop
  endfacet
  facet normal 0 0 1
    outer loop
      vertex -2.5 -10 20
      vertex -12.5 -5 20
      vertex -12.5 -10 20
    endloop
  endfacet
  facet normal 1 -0 0
    outer loop
      vertex -2.5 -10 20
      vertex -2.5 -5 15
      vertex -2.5 -5 20
    endloop
  endfacet
  facet normal 1 0 0
    outer loop
      vertex -2.5 -5 15
      vertex -2.5 -10 20
      vertex -2.5 -10 15
    endloop
  endfacet
  facet normal 0 -1 0
    outer loop
      vertex -12.5 -10 15
      vertex -2.5 -10 20
      vertex -12.5 -10 20
    endloop
  endfacet
  facet normal 0 -1 -0
    outer loop
      vertex -2.5 -10 20
      vertex -12.5 -10 15
      vertex -2.5 -10 15
    endloop
  endfacet
  facet normal -1 0 0
    outer loop
      vertex 0 -5 0
      vertex 0 0 2.5
      vertex 0 0 0
    endloop
  endfacet
  facet normal -1 -0 0
    outer loop
      vertex 0 0 2.5
      vertex 0 -5 0
      vertex 0 -5 2.5
    endloop
  endfacet
  facet normal 1 0 0
    outer loop
      vertex 0 -15 5
      vertex 0 -5 15
      vertex 0 -15 15
    endloop
  endfacet
  facet normal 1 0 0
    outer loop
      vertex 0 -5 15
      vertex 0 -15 5
      vertex 0 -5 2.5
    endloop
  endfacet
  facet normal 1 0 0
    outer loop
      vertex 0 -5 2.5
      vertex 0 -15 5
      vertex 0 -15 2.5
    endloop
  endfacet
  facet normal -0 0 1
    outer loop
      vertex 1.66667 1.66667 2.5
      vertex 11.6667 -3.33333 2.5
      vertex 11.6667 1.66667 2.5
    endloop
  endfacet
  facet normal 0 0 1
    outer loop
      vertex 11.6667 -3.33333 2.5
      vertex 1.66667 1.66667 2.5
      vertex 1.66667 -3.33333 2.5
    endloop
  endfacet
  facet normal 0 0 1
    outer loop
      vertex 11.6667 1.66667 2.5
      vertex 15 15 2.5
      vertex 11.6667 11.6667 2.5
    endloop
  endfacet
  facet normal -0 0 1
    outer loop
      vertex 0 15 2.5
      vertex 11.6667 11.6667 2.5
      vertex 15 15 2.5
    endloop
  endfacet
  facet normal -0 0 1
    outer loop
      vertex 0 10 2.5
      vertex 1.66667 1.66667 2.5
      vertex 1.66667 11.6667 2.5
    endloop
  endfacet
  facet normal 0 0 1
    outer loop
      vertex 1.66667 1.66667 2.5
      vertex 0 0 2.5
      vertex 1.66667 -3.33333 2.5
    endloop
  endfacet
  facet normal 0 0 1
    outer loop
      vertex 0 10 2.5
      vertex 1.66667 11.6667 2.5
      vertex 0 15 2.5
    endloop
  endfacet
  facet normal 0 0 1
    outer loop
      vertex 11.6667 11.6667 2.5
      vertex 0 15 2.5
      vertex 1.66667 11.6667 2.5
    endloop
  endfacet
  facet normal 0 0 1
    outer loop
      vertex 15 15 2.5
      vertex 11.6667 1.66667 2.5
      vertex 15 -15 2.5
    endloop
  endfacet
  facet normal -0 0 1
    outer loop
      vertex 11.6667 -3.33333 2.5
      vertex 15 -15 2.5
      vertex 11.6667 1.66667 2.5
    endloop
  endfacet
  facet normal -0 0 1
    outer loop
      vertex 11.6667 -13.3333 2.5
      vertex 15 -15 2.5
      vertex 11.6667 -3.33333 2.5
    endloop
  endfacet
  facet normal 0 0 1
    outer loop
      vertex 10 -15 2.5
      vertex 11.6667 -13.3333 2.5
      vertex 10 -13.3333 2.5
    endloop
  endfacet
  facet normal 0 0 1
    outer loop
      vertex 11.6667 -13.3333 2.5
      vertex 10 -15 2.5
      vertex 15 -15 2.5
    endloop
  endfacet
  facet normal -0 0 1
    outer loop
      vertex 1.66667 -13.3333 2.5
      vertex 5 -15 2.5
      vertex 5 -13.3333 2.5
    endloop
  endfacet
  facet normal 0 0 1
    outer loop
      vertex 1.66667 1.66667 2.5
      vertex 0 10 2.5
      vertex 0 0 2.5
    endloop
  endfacet
  facet normal 0 0 1
    outer loop
      vertex 0 -5 2.5
      vertex 1.66667 -3.33333 2.5
      vertex 0 0 2.5
    endloop
  endfacet
  facet normal 0 0 1
    outer loop
      vertex 1.66667 -3.33333 2.5
      vertex 0 -5 2.5
      vertex 1.66667 -13.3333 2.5
    endloop
  endfacet
  facet normal 0 0 1
    outer loop
      vertex 1.66667 -13.3333 2.5
      vertex 0 -15 2.5
      vertex 5 -15 2.5
    endloop
  endfacet
  facet normal 0 0 1
    outer loop
      vertex 0 -15 2.5
      vertex 1.66667 -13.3333 2.5
      vertex 0 -5 2.5
    endloop
  endfacet
  facet normal -1 0 0
    outer loop
      vertex 15 -15 2.5
      vertex 15 15 5
      vertex 15 15 2.5
    endloop
  endfacet
  facet normal -1 -0 0
    outer loop
      vertex 15 15 5
      vertex 15 -15 2.5
      vertex 15 -15 5
    endloop
  endfacet
  facet normal 0 -1 0
    outer loop
      vertex -15 0 15
      vertex 0 0 2.5
      vertex 0 0 15
    endloop
  endfacet
  facet normal 0 -1 0
    outer loop
      vertex -15 0 0
      vertex 0 0 2.5
      vertex -15 0 15
    endloop
  endfacet
  facet normal 0 -1 -0
    outer loop
      vertex 0 0 2.5
      vertex -15 0 0
      vertex 0 0 0
    endloop
  endfacet
  facet normal -1 0 0
    outer loop
      vertex 1.66667 -13.3333 2.5
      vertex 1.66667 -3.33333 17.5
      vertex 1.66667 -3.33333 2.5
    endloop
  endfacet
  facet normal -1 -0 0
    outer loop
      vertex 1.66667 -3.33333 17.5
      vertex 1.66667 -13.3333 2.5
      vertex 1.66667 -13.3333 17.5
    endloop
  endfacet
  facet normal 0 0 1
    outer loop
      vertex 11.6667 -3.33333 17.5
      vertex 7.5 -7.5 17.5
      vertex 11.6667 -13.3333 17.5
    endloop
  endfacet
  facet normal -0 0 1
    outer loop
      vertex 1.66667 -3.33333 17.5
      vertex 7.5 -7.5 17.5
      vertex 11.6667 -3.33333 17.5
    endloop
  endfacet
  facet normal 0 0 1
    outer loop
      vertex 1.66667 -13.3333 17.5
      vertex 2.5 -7.5 17.5
      vertex 1.66667 -3.33333 17.5
    endloop
  endfacet
  facet normal 0 0 1
    outer loop
      vertex 7.5 -7.5 17.5
      vertex 1.66667 -3.33333 17.5
      vertex 2.5 -7.5 17.5
    endloop
  endfacet
  facet normal -0 0 1
    outer loop
      vertex 7.5 -12.5 17.5
      vertex 11.6667 -13.3333 17.5
      vertex 7.5 -7.5 17.5
    endloop
  endfacet
  facet normal 0 0 1
    outer loop
      vertex 1.66667 -13.3333 17.5
      vertex 7.5 -12.5 17.5
      vertex 2.5 -12.5 17.5
    endloop
  endfacet
  facet normal 0 0 1
    outer loop
      vertex 7.5 -12.5 17.5
      vertex 1.66667 -13.3333 17.5
      vertex 11.6667 -13.3333 17.5
    endloop
  endfacet
  facet normal 0 0 1
    outer loop
      vertex 2.5 -7.5 17.5
      vertex 1.66667 -13.3333 17.5
      vertex 2.5 -12.5 17.5
    endloop
  endfacet
  facet normal 1 -0 0
    outer loop
      vertex 11.6667 -13.3333 17.5
      vertex 11.6667 -3.33333 2.5
      vertex 11.6667 -3.33333 17.5
    endloop
  endfacet
  facet normal 1 0 0
    outer loop
      vertex 11.6667 -3.33333 2.5
      vertex 11.6667 -13.3333 17.5
      vertex 11.6667 -13.3333 2.5
    endloop
  endfacet
  facet normal 0 -1 0
    outer loop
      vertex 1.66667 -13.3333 17.5
      vertex 5 -13.3333 15
      vertex 11.6667 -13.3333 17.5
    endloop
  endfacet
  facet normal 0 -1 0
    outer loop
      vertex 1.66667 -13.3333 2.5
      vertex 5 -13.3333 15
      vertex 1.66667 -13.3333 17.5
    endloop
  endfacet
  facet normal 0 -1 -0
    outer loop
      vertex 5 -13.3333 15
      vertex 1.66667 -13.3333 2.5
      vertex 5 -13.3333 2.5
    endloop
  endfacet
  facet normal 0 -1 0
    outer loop
      vertex 10 -13.3333 15
      vertex 11.6667 -13.3333 17.5
      vertex 5 -13.3333 15
    endloop
  endfacet
  facet normal 0 -1 0
    outer loop
      vertex 11.6667 -13.3333 2.5
      vertex 10 -13.3333 15
      vertex 10 -13.3333 2.5
    endloop
  endfacet
  facet normal 0 -1 0
    outer loop
      vertex 10 -13.3333 15
      vertex 11.6667 -13.3333 2.5
      vertex 11.6667 -13.3333 17.5
    endloop
  endfacet
  facet normal 0 1 -0
    outer loop
      vertex 11.6667 -3.33333 2.5
      vertex 1.66667 -3.33333 17.5
      vertex 11.6667 -3.33333 17.5
    endloop
  endfacet
  facet normal 0 1 0
    outer loop
      vertex 1.66667 -3.33333 17.5
      vertex 11.6667 -3.33333 2.5
      vertex 1.66667 -3.33333 2.5
    endloop
  endfacet
  facet normal -1 0 0
    outer loop
      vertex 2.5 -12.5 17.5
      vertex 2.5 -7.5 33.75
      vertex 2.5 -7.5 17.5
    endloop
  endfacet
  facet normal -1 -0 0
    outer loop
      vertex 2.5 -7.5 33.75
      vertex 2.5 -12.5 17.5
      vertex 2.5 -12.5 33.75
    endloop
  endfacet
  facet normal -0 0 1
    outer loop
      vertex 2.5 -7.5 33.75
      vertex 7.5 -12.5 33.75
      vertex 7.5 -7.5 33.75
    endloop
  endfacet
  facet normal 0 0 1
    outer loop
      vertex 7.5 -12.5 33.75
      vertex 2.5 -7.5 33.75
      vertex 2.5 -12.5 33.75
    endloop
  endfacet
  facet normal 1 -0 0
    outer loop
      vertex 7.5 -12.5 33.75
      vertex 7.5 -7.5 17.5
      vertex 7.5 -7.5 33.75
    endloop
  endfacet
  facet normal 1 0 0
    outer loop
      vertex 7.5 -7.5 17.5
      vertex 7.5 -12.5 33.75
      vertex 7.5 -12.5 17.5
    endloop
  endfacet
  facet normal 0 1 -0
    outer loop
      vertex 7.5 -7.5 17.5
      vertex 2.5 -7.5 33.75
      vertex 7.5 -7.5 33.75
    endloop
  endfacet
  facet normal 0 1 0
    outer loop
      vertex 2.5 -7.5 33.75
      vertex 7.5 -7.5 17.5
      vertex 2.5 -7.5 17.5
    endloop
  endfacet
  facet normal 0 -1 0
    outer loop
      vertex 2.5 -12.5 17.5
      vertex 7.5 -12.5 33.75
      vertex 2.5 -12.5 33.75
    endloop
  endfacet
  facet normal 0 -1 -0
    outer loop
      vertex 7.5 -12.5 33.75
      vertex 2.5 -12.5 17.5
      vertex 7.5 -12.5 17.5
    endloop
  endfacet
  facet normal 0 0 1
    outer loop
      vertex 20 15 5
      vertex 15 15 5
      vertex 20 -10 5
    endloop
  endfacet
  facet normal -0 0 1
    outer loop
      vertex 20 -10 5
      vertex 22.5 -15 5
      vertex 22.5 -10 5
    endloop
  endfacet
  facet normal 0 0 1
    outer loop
      vertex 20 -10 5
      vertex 15 -15 5
      vertex 22.5 -15 5
    endloop
  endfacet
  facet normal 0 0 1
    outer loop
      vertex 15 -15 5
      vertex 20 -10 5
      vertex 15 15 5
    endloop
  endfacet
  facet normal 1 0 0
    outer loop
      vertex 22.5 -15 2.5
      vertex 22.5 -10 5
      vertex 22.5 -15 5
    endloop
  endfacet
  facet normal 1 0 0
    outer loop
      vertex 22.5 -10 5
      vertex 22.5 -15 2.5
      vertex 22.5 -10 0
    endloop
  endfacet
  facet normal 1 0 0
    outer loop
      vertex 22.5 -10 0
      vertex 22.5 -15 2.5
      vertex 22.5 -15 0
    endloop
  endfacet
  facet normal -1 0 0
    outer loop
      vertex 20 -10 5
      vertex 20 15 15
      vertex 20 15 5
    endloop
  endfacet
  facet normal -1 -0 0
    outer loop
      vertex 20 15 15
      vertex 20 -10 5
      vertex 20 -10 15
    endloop
  endfacet
  facet normal 0 0 1
    outer loop
      vertex 2.5 25 15
      vertex 0 25 15
      vertex 2.5 20 15
    endloop
  endfacet
  facet normal 0 0 1
    outer loop
      vertex 17.5 25 15
      vertex 12.5 25 15
      vertex 17.5 20 15
    endloop
  endfacet
  facet normal 0 0 1
    outer loop
      vertex 27.5 20 15
      vertex 30 25 15
      vertex 27.5 25 15
    endloop
  endfacet
  facet normal 0 0 1
    outer loop
      vertex 30 25 15
      vertex 27.5 20 15
      vertex 30 15 15
    endloop
  endfacet
  facet normal 0 0 1
    outer loop
      vertex 27.5 20 15
      vertex 25 15 15
      vertex 30 15 15
    endloop
  endfacet
  facet normal 0 0 1
    outer loop
      vertex 25 15 15
      vertex 20 15 15
      vertex 25 -10 15
    endloop
  endfacet
  facet normal 0 0 1
    outer loop
      vertex 27.5 20 15
      vertex 20 15 15
      vertex 25 15 15
    endloop
  endfacet
  facet normal -0 0 1
    outer loop
      vertex 17.5 20 15
      vertex 20 15 15
      vertex 27.5 20 15
    endloop
  endfacet
  facet normal 0 0 1
    outer loop
      vertex 12.5 20 15
      vertex 17.5 20 15
      vertex 12.5 25 15
    endloop
  endfacet
  facet normal 0 0 1
    outer loop
      vertex 17.5 20 15
      vertex 12.5 20 15
      vertex 20 15 15
    endloop
  endfacet
  facet normal 0 0 1
    outer loop
      vertex 0 15 15
      vertex 12.5 20 15
      vertex 2.5 20 15
    endloop
  endfacet
  facet normal 0 0 1
    outer loop
      vertex 12.5 20 15
      vertex 0 15 15
      vertex 20 15 15
    endloop
  endfacet
  facet normal 0 0 1
    outer loop
      vertex 0 15 15
      vertex 2.5 20 15
      vertex 0 25 15
    endloop
  endfacet
  facet normal 0 0 1
    outer loop
      vertex 25 -10 15
      vertex 20 15 15
      vertex 20 -10 15
    endloop
  endfacet
  facet normal 1 0 0
    outer loop
      vertex 25 15 15
      vertex 25 12.5 5
      vertex 25 15 0
    endloop
  endfacet
  facet normal 1 0 0
    outer loop
      vertex 25 15 15
      vertex 25 7.5 5
      vertex 25 12.5 5
    endloop
  endfacet
  facet normal 1 0 0
    outer loop
      vertex 25 7.5 5
      vertex 25 -2.5 5
      vertex 25 7.5 0
    endloop
  endfacet
  facet normal 1 0 0
    outer loop
      vertex 25 15 15
      vertex 25 -2.5 5
      vertex 25 7.5 5
    endloop
  endfacet
  facet normal 1 -0 0
    outer loop
      vertex 25 -10 15
      vertex 25 -2.5 5
      vertex 25 15 15
    endloop
  endfacet
  facet normal 1 0 0
    outer loop
      vertex 25 -2.5 5
      vertex 25 -10 15
      vertex 25 -7.5 5
    endloop
  endfacet
  facet normal 1 0 0
    outer loop
      vertex 25 -10 0
      vertex 25 -7.5 5
      vertex 25 -10 15
    endloop
  endfacet
  facet normal 1 0 0
    outer loop
      vertex 25 -7.5 5
      vertex 25 -10 0
      vertex 25 -7.5 0
    endloop
  endfacet
  facet normal 1 0 0
    outer loop
      vertex 25 15 0
      vertex 25 12.5 5
      vertex 25 12.5 0
    endloop
  endfacet
  facet normal 1 0 0
    outer loop
      vertex 25 7.5 0
      vertex 25 -2.5 5
      vertex 25 -2.5 0
    endloop
  endfacet
  facet normal 0 -1 0
    outer loop
      vertex 22.5 -10 5
      vertex 20 -10 15
      vertex 20 -10 5
    endloop
  endfacet
  facet normal 0 -1 0
    outer loop
      vertex 20 -10 15
      vertex 22.5 -10 5
      vertex 25 -10 15
    endloop
  endfacet
  facet normal 0 -1 0
    outer loop
      vertex 25 -10 0
      vertex 22.5 -10 5
      vertex 22.5 -10 0
    endloop
  endfacet
  facet normal 0 -1 0
    outer loop
      vertex 22.5 -10 5
      vertex 25 -10 0
      vertex 25 -10 15
    endloop
  endfacet
  facet normal -0 0 1
    outer loop
      vertex 25 -2.5 5
      vertex 30 -7.5 5
      vertex 30 -2.5 5
    endloop
  endfacet
  facet normal 0 0 1
    outer loop
      vertex 30 -7.5 5
      vertex 25 -2.5 5
      vertex 25 -7.5 5
    endloop
  endfacet
  facet normal 1 -0 0
    outer loop
      vertex 30 -7.5 5
      vertex 30 -2.5 0
      vertex 30 -2.5 5
    endloop
  endfacet
  facet normal 1 0 0
    outer loop
      vertex 30 -2.5 0
      vertex 30 -7.5 5
      vertex 30 -7.5 0
    endloop
  endfacet
  facet normal 0 1 -0
    outer loop
      vertex 30 -2.5 0
      vertex 25 -2.5 5
      vertex 30 -2.5 5
    endloop
  endfacet
  facet normal 0 1 0
    outer loop
      vertex 25 -2.5 5
      vertex 30 -2.5 0
      vertex 25 -2.5 0
    endloop
  endfacet
  facet normal 0 -1 0
    outer loop
      vertex 25 -7.5 0
      vertex 30 -7.5 5
      vertex 25 -7.5 5
    endloop
  endfacet
  facet normal 0 -1 -0
    outer loop
      vertex 30 -7.5 5
      vertex 25 -7.5 0
      vertex 30 -7.5 0
    endloop
  endfacet
  facet normal -1 0 0
    outer loop
      vertex -30 25 0
      vertex -30 15 5
      vertex -30 25 15
    endloop
  endfacet
  facet normal -1 0 0
    outer loop
      vertex -30 0 0
      vertex -30 15 5
      vertex -30 25 0
    endloop
  endfacet
  facet normal -1 -0 0
    outer loop
      vertex -30 15 5
      vertex -30 0 0
      vertex -30 0 5
    endloop
  endfacet
  facet normal -1 -0 0
    outer loop
      vertex -30 25 15
      vertex -30 15 5
      vertex -30 15 15
    endloop
  endfacet
  facet normal 0 0 1
    outer loop
      vertex -25 15 5
      vertex -30 15 5
      vertex -25 5 5
    endloop
  endfacet
  facet normal -0 0 1
    outer loop
      vertex -25 5 5
      vertex -22.5 0 5
      vertex -22.5 5 5
    endloop
  endfacet
  facet normal 0 0 1
    outer loop
      vertex -30 0 5
      vertex -25 5 5
      vertex -30 15 5
    endloop
  endfacet
  facet normal 0 0 1
    outer loop
      vertex -25 5 5
      vertex -30 0 5
      vertex -22.5 0 5
    endloop
  endfacet
  facet normal 1 -0 0
    outer loop
      vertex -22.5 0 5
      vertex -22.5 5 0
      vertex -22.5 5 5
    endloop
  endfacet
  facet normal 1 0 0
    outer loop
      vertex -22.5 5 0
      vertex -22.5 0 5
      vertex -22.5 0 0
    endloop
  endfacet
  facet normal 0 -1 0
    outer loop
      vertex -30 0 0
      vertex -22.5 0 5
      vertex -30 0 5
    endloop
  endfacet
  facet normal 0 -1 -0
    outer loop
      vertex -22.5 0 5
      vertex -30 0 0
      vertex -22.5 0 0
    endloop
  endfacet
  facet normal 0 -1 0
    outer loop
      vertex -20 15 15
      vertex -15 15 5
      vertex -15 15 15
    endloop
  endfacet
  facet normal 0 -1 0
    outer loop
      vertex -20 15 0
      vertex -15 15 5
      vertex -20 15 15
    endloop
  endfacet
  facet normal 0 -1 0
    outer loop
      vertex -7.5 15 0
      vertex -15 15 5
      vertex -20 15 0
    endloop
  endfacet
  facet normal 0 -1 0
    outer loop
      vertex -15 15 5
      vertex -7.5 15 0
      vertex -7.5 15 5
    endloop
  endfacet
  facet normal 0 -1 0
    outer loop
      vertex -30 15 5
      vertex -25 15 15
      vertex -30 15 15
    endloop
  endfacet
  facet normal 0 -1 -0
    outer loop
      vertex -25 15 15
      vertex -30 15 5
      vertex -25 15 5
    endloop
  endfacet
  facet normal -1 0 0
    outer loop
      vertex -25 5 5
      vertex -25 15 15
      vertex -25 15 5
    endloop
  endfacet
  facet normal -1 -0 0
    outer loop
      vertex -25 15 15
      vertex -25 5 5
      vertex -25 5 15
    endloop
  endfacet
  facet normal 0 0 1
    outer loop
      vertex -27.5 25 15
      vertex -30 25 15
      vertex -27.5 20 15
    endloop
  endfacet
  facet normal 0 0 1
    outer loop
      vertex -17.5 20 15
      vertex -15 25 15
      vertex -17.5 25 15
    endloop
  endfacet
  facet normal 0 0 1
    outer loop
      vertex -15 25 15
      vertex -17.5 20 15
      vertex -15 15 15
    endloop
  endfacet
  facet normal 0 0 1
    outer loop
      vertex -17.5 20 15
      vertex -20 15 15
      vertex -15 15 15
    endloop
  endfacet
  facet normal 0 0 1
    outer loop
      vertex -20 15 15
      vertex -25 15 15
      vertex -20 5 15
    endloop
  endfacet
  facet normal 0 0 1
    outer loop
      vertex -17.5 20 15
      vertex -25 15 15
      vertex -20 15 15
    endloop
  endfacet
  facet normal -0 0 1
    outer loop
      vertex -27.5 20 15
      vertex -25 15 15
      vertex -17.5 20 15
    endloop
  endfacet
  facet normal 0 0 1
    outer loop
      vertex -30 15 15
      vertex -27.5 20 15
      vertex -30 25 15
    endloop
  endfacet
  facet normal 0 0 1
    outer loop
      vertex -27.5 20 15
      vertex -30 15 15
      vertex -25 15 15
    endloop
  endfacet
  facet normal 0 0 1
    outer loop
      vertex -20 5 15
      vertex -25 15 15
      vertex -25 5 15
    endloop
  endfacet
  facet normal 1 0 0
    outer loop
      vertex -20 15 15
      vertex -20 12.5 5
      vertex -20 15 0
    endloop
  endfacet
  facet normal 1 0 0
    outer loop
      vertex -20 15 15
      vertex -20 7.5 5
      vertex -20 12.5 5
    endloop
  endfacet
  facet normal 1 -0 0
    outer loop
      vertex -20 5 15
      vertex -20 7.5 5
      vertex -20 15 15
    endloop
  endfacet
  facet normal 1 0 0
    outer loop
      vertex -20 5 0
      vertex -20 7.5 5
      vertex -20 5 15
    endloop
  endfacet
  facet normal 1 0 0
    outer loop
      vertex -20 7.5 5
      vertex -20 5 0
      vertex -20 7.5 0
    endloop
  endfacet
  facet normal 1 0 0
    outer loop
      vertex -20 15 0
      vertex -20 12.5 5
      vertex -20 12.5 0
    endloop
  endfacet
  facet normal 0 -1 0
    outer loop
      vertex -22.5 5 5
      vertex -25 5 15
      vertex -25 5 5
    endloop
  endfacet
  facet normal 0 -1 0
    outer loop
      vertex -25 5 15
      vertex -22.5 5 5
      vertex -20 5 15
    endloop
  endfacet
  facet normal 0 -1 0
    outer loop
      vertex -20 5 0
      vertex -22.5 5 5
      vertex -22.5 5 0
    endloop
  endfacet
  facet normal 0 -1 0
    outer loop
      vertex -22.5 5 5
      vertex -20 5 0
      vertex -20 5 15
    endloop
  endfacet
  facet normal -0 0 1
    outer loop
      vertex -20 12.5 5
      vertex -15 10 5
      vertex -15 12.5 5
    endloop
  endfacet
  facet normal 0 0 1
    outer loop
      vertex -20 7.5 5
      vertex -15 10 5
      vertex -20 12.5 5
    endloop
  endfacet
  facet normal 0 0 1
    outer loop
      vertex -15 10 5
      vertex -20 7.5 5
      vertex -15 7.5 5
    endloop
  endfacet
  facet normal -1 0 0
    outer loop
      vertex -15 7.5 0
      vertex -15 0 0
      vertex -15 7.5 5
    endloop
  endfacet
  facet normal -1 0 0
    outer loop
      vertex -15 7.5 5
      vertex -15 10 15
      vertex -15 10 5
    endloop
  endfacet
  facet normal -1 0 0
    outer loop
      vertex -15 0 15
      vertex -15 7.5 5
      vertex -15 0 0
    endloop
  endfacet
  facet normal -1 0 0
    outer loop
      vertex -15 7.5 5
      vertex -15 0 15
      vertex -15 10 15
    endloop
  endfacet
  facet normal 1 -0 0
    outer loop
      vertex -15 10 5
      vertex -15 12.5 0
      vertex -15 12.5 5
    endloop
  endfacet
  facet normal 1 0 0
    outer loop
      vertex -15 12.5 0
      vertex -15 10 5
      vertex -15 10 0
    endloop
  endfacet
  facet normal 0 1 -0
    outer loop
      vertex -15 12.5 0
      vertex -20 12.5 5
      vertex -15 12.5 5
    endloop
  endfacet
  facet normal 0 1 0
    outer loop
      vertex -20 12.5 5
      vertex -15 12.5 0
      vertex -20 12.5 0
    endloop
  endfacet
  facet normal 0 -1 0
    outer loop
      vertex -20 7.5 0
      vertex -15 7.5 5
      vertex -20 7.5 5
    endloop
  endfacet
  facet normal 0 -1 -0
    outer loop
      vertex -15 7.5 5
      vertex -20 7.5 0
      vertex -15 7.5 0
    endloop
  endfacet
  facet normal -1 0 0
    outer loop
      vertex -12.5 5 15
      vertex -12.5 10 22.5
      vertex -12.5 10 15
    endloop
  endfacet
  facet normal -1 -0 0
    outer loop
      vertex -12.5 10 22.5
      vertex -12.5 5 15
      vertex -12.5 5 22.5
    endloop
  endfacet
  facet normal -0 0 1
    outer loop
      vertex -12.5 10 22.5
      vertex -2.5 5 22.5
      vertex -2.5 10 22.5
    endloop
  endfacet
  facet normal 0 0 1
    outer loop
      vertex -2.5 5 22.5
      vertex -12.5 10 22.5
      vertex -12.5 5 22.5
    endloop
  endfacet
  facet normal 1 -0 0
    outer loop
      vertex -2.5 5 22.5
      vertex -2.5 10 15
      vertex -2.5 10 22.5
    endloop
  endfacet
  facet normal 1 0 0
    outer loop
      vertex -2.5 10 15
      vertex -2.5 5 22.5
      vertex -2.5 5 15
    endloop
  endfacet
  facet normal 0 1 -0
    outer loop
      vertex 0 10 2.5
      vertex -2.5 10 15
      vertex 0 10 15
    endloop
  endfacet
  facet normal -0 1 0
    outer loop
      vertex -15 10 5
      vertex -2.5 10 15
      vertex 0 10 2.5
    endloop
  endfacet
  facet normal 0 1 0
    outer loop
      vertex -12.5 10 15
      vertex -15 10 5
      vertex -15 10 15
    endloop
  endfacet
  facet normal 0 1 0
    outer loop
      vertex -2.5 10 15
      vertex -15 10 5
      vertex -12.5 10 15
    endloop
  endfacet
  facet normal 0 1 0
    outer loop
      vertex -15 10 0
      vertex 0 10 2.5
      vertex 0 10 0
    endloop
  endfacet
  facet normal 0 1 0
    outer loop
      vertex 0 10 2.5
      vertex -15 10 0
      vertex -15 10 5
    endloop
  endfacet
  facet normal 0 1 -0
    outer loop
      vertex -2.5 10 15
      vertex -12.5 10 22.5
      vertex -2.5 10 22.5
    endloop
  endfacet
  facet normal 0 1 0
    outer loop
      vertex -12.5 10 22.5
      vertex -2.5 10 15
      vertex -12.5 10 15
    endloop
  endfacet
  facet normal 0 0 1
    outer loop
      vertex -12.5 10 15
      vertex -15 10 15
      vertex -12.5 5 15
    endloop
  endfacet
  facet normal 0 0 1
    outer loop
      vertex -2.5 5 15
      vertex 0 10 15
      vertex -2.5 10 15
    endloop
  endfacet
  facet normal 0 0 1
    outer loop
      vertex 0 10 15
      vertex -2.5 5 15
      vertex 0 0 15
    endloop
  endfacet
  facet normal -0 0 1
    outer loop
      vertex -12.5 5 15
      vertex 0 0 15
      vertex -2.5 5 15
    endloop
  endfacet
  facet normal 0 0 1
    outer loop
      vertex -12.5 5 15
      vertex -15 0 15
      vertex 0 0 15
    endloop
  endfacet
  facet normal 0 0 1
    outer loop
      vertex -15 0 15
      vertex -12.5 5 15
      vertex -15 10 15
    endloop
  endfacet
  facet normal 0 -1 0
    outer loop
      vertex -12.5 5 15
      vertex -2.5 5 22.5
      vertex -12.5 5 22.5
    endloop
  endfacet
  facet normal 0 -1 -0
    outer loop
      vertex -2.5 5 22.5
      vertex -12.5 5 15
      vertex -2.5 5 15
    endloop
  endfacet
  facet normal -1 0 0
    outer loop
      vertex 0 22.5 0
      vertex 0 15 2.5
      vertex 0 22.5 5
    endloop
  endfacet
  facet normal -1 0 0
    outer loop
      vertex 0 10 0
      vertex 0 15 2.5
      vertex 0 22.5 0
    endloop
  endfacet
  facet normal -1 -0 0
    outer loop
      vertex 0 15 2.5
      vertex 0 10 0
      vertex 0 10 2.5
    endloop
  endfacet
  facet normal -1 0 0
    outer loop
      vertex 0 22.5 5
      vertex 0 25 15
      vertex 0 25 5
    endloop
  endfacet
  facet normal -1 0 0
    outer loop
      vertex 0 15 15
      vertex 0 22.5 5
      vertex 0 15 2.5
    endloop
  endfacet
  facet normal -1 0 0
    outer loop
      vertex 0 22.5 5
      vertex 0 15 15
      vertex 0 25 15
    endloop
  endfacet
  facet normal 1 -0 0
    outer loop
      vertex 0 25 5
      vertex 0 27.5 0
      vertex 0 27.5 5
    endloop
  endfacet
  facet normal 1 0 0
    outer loop
      vertex 0 27.5 0
      vertex 0 25 5
      vertex 0 25 0
    endloop
  endfacet
  facet normal 1 -0 0
    outer loop
      vertex 0 0 15
      vertex 0 10 2.5
      vertex 0 10 15
    endloop
  endfacet
  facet normal 1 0 0
    outer loop
      vertex 0 10 2.5
      vertex 0 0 15
      vertex 0 0 2.5
    endloop
  endfacet
  facet normal 0 -1 0
    outer loop
      vertex 25 15 0
      vertex 30 15 15
      vertex 25 15 15
    endloop
  endfacet
  facet normal 0 -1 -0
    outer loop
      vertex 30 15 15
      vertex 25 15 0
      vertex 30 15 0
    endloop
  endfacet
  facet normal 0 -1 0
    outer loop
      vertex 0 15 15
      vertex 15 15 5
      vertex 20 15 15
    endloop
  endfacet
  facet normal 0 -1 0
    outer loop
      vertex 0 15 2.5
      vertex 15 15 5
      vertex 0 15 15
    endloop
  endfacet
  facet normal 0 -1 -0
    outer loop
      vertex 15 15 5
      vertex 0 15 2.5
      vertex 15 15 2.5
    endloop
  endfacet
  facet normal 0 -1 -0
    outer loop
      vertex 20 15 15
      vertex 15 15 5
      vertex 20 15 5
    endloop
  endfacet
  facet normal -1 0 0
    outer loop
      vertex 1.66667 1.66667 2.5
      vertex 1.66667 11.6667 17.5
      vertex 1.66667 11.6667 2.5
    endloop
  endfacet
  facet normal -1 -0 0
    outer loop
      vertex 1.66667 11.6667 17.5
      vertex 1.66667 1.66667 2.5
      vertex 1.66667 1.66667 17.5
    endloop
  endfacet
  facet normal 0 0 1
    outer loop
      vertex 11.6667 11.6667 17.5
      vertex 7.5 7.5 17.5
      vertex 11.6667 1.66667 17.5
    endloop
  endfacet
  facet normal -0 0 1
    outer loop
      vertex 1.66667 11.6667 17.5
      vertex 7.5 7.5 17.5
      vertex 11.6667 11.6667 17.5
    endloop
  endfacet
  facet normal 0 0 1
    outer loop
      vertex 1.66667 1.66667 17.5
      vertex 2.5 7.5 17.5
      vertex 1.66667 11.6667 17.5
    endloop
  endfacet
  facet normal 0 0 1
    outer loop
      vertex 7.5 7.5 17.5
      vertex 1.66667 11.6667 17.5
      vertex 2.5 7.5 17.5
    endloop
  endfacet
  facet normal -0 0 1
    outer loop
      vertex 7.5 2.5 17.5
      vertex 11.6667 1.66667 17.5
      vertex 7.5 7.5 17.5
    endloop
  endfacet
  facet normal 0 0 1
    outer loop
      vertex 1.66667 1.66667 17.5
      vertex 7.5 2.5 17.5
      vertex 2.5 2.5 17.5
    endloop
  endfacet
  facet normal 0 0 1
    outer loop
      vertex 7.5 2.5 17.5
      vertex 1.66667 1.66667 17.5
      vertex 11.6667 1.66667 17.5
    endloop
  endfacet
  facet normal 0 0 1
    outer loop
      vertex 2.5 7.5 17.5
      vertex 1.66667 1.66667 17.5
      vertex 2.5 2.5 17.5
    endloop
  endfacet
  facet normal 1 -0 0
    outer loop
      vertex 11.6667 1.66667 17.5
      vertex 11.6667 11.6667 2.5
      vertex 11.6667 11.6667 17.5
    endloop
  endfacet
  facet normal 1 0 0
    outer loop
      vertex 11.6667 11.6667 2.5
      vertex 11.6667 1.66667 17.5
      vertex 11.6667 1.66667 2.5
    endloop
  endfacet
  facet normal 0 -1 0
    outer loop
      vertex 1.66667 1.66667 2.5
      vertex 11.6667 1.66667 17.5
      vertex 1.66667 1.66667 17.5
    endloop
  endfacet
  facet normal 0 -1 -0
    outer loop
      vertex 11.6667 1.66667 17.5
      vertex 1.66667 1.66667 2.5
      vertex 11.6667 1.66667 2.5
    endloop
  endfacet
  facet normal 0 1 -0
    outer loop
      vertex 11.6667 11.6667 2.5
      vertex 1.66667 11.6667 17.5
      vertex 11.6667 11.6667 17.5
    endloop
  endfacet
  facet normal 0 1 0
    outer loop
      vertex 1.66667 11.6667 17.5
      vertex 11.6667 11.6667 2.5
      vertex 1.66667 11.6667 2.5
    endloop
  endfacet
  facet normal -1 0 0
    outer loop
      vertex 2.5 2.5 17.5
      vertex 2.5 7.5 33.75
      vertex 2.5 7.5 17.5
    endloop
  endfacet
  facet normal -1 -0 0
    outer loop
      vertex 2.5 7.5 33.75
      vertex 2.5 2.5 17.5
      vertex 2.5 2.5 33.75
    endloop
  endfacet
  facet normal -0 0 1
    outer loop
      vertex 2.5 7.5 33.75
      vertex 7.5 2.5 33.75
      vertex 7.5 7.5 33.75
    endloop
  endfacet
  facet normal 0 0 1
    outer loop
      vertex 7.5 2.5 33.75
      vertex 2.5 7.5 33.75
      vertex 2.5 2.5 33.75
    endloop
  endfacet
  facet normal 1 -0 0
    outer loop
      vertex 7.5 2.5 33.75
      vertex 7.5 7.5 17.5
      vertex 7.5 7.5 33.75
    endloop
  endfacet
  facet normal 1 0 0
    outer loop
      vertex 7.5 7.5 17.5
      vertex 7.5 2.5 33.75
      vertex 7.5 2.5 17.5
    endloop
  endfacet
  facet normal 0 1 -0
    outer loop
      vertex 7.5 7.5 17.5
      vertex 2.5 7.5 33.75
      vertex 7.5 7.5 33.75
    endloop
  endfacet
  facet normal 0 1 0
    outer loop
      vertex 2.5 7.5 33.75
      vertex 7.5 7.5 17.5
      vertex 2.5 7.5 17.5
    endloop
  endfacet
  facet normal 0 -1 0
    outer loop
      vertex 2.5 2.5 17.5
      vertex 7.5 2.5 33.75
      vertex 2.5 2.5 33.75
    endloop
  endfacet
  facet normal 0 -1 -0
    outer loop
      vertex 7.5 2.5 33.75
      vertex 2.5 2.5 17.5
      vertex 7.5 2.5 17.5
    endloop
  endfacet
  facet normal -0 0 1
    outer loop
      vertex 25 12.5 5
      vertex 30 7.5 5
      vertex 30 12.5 5
    endloop
  endfacet
  facet normal 0 0 1
    outer loop
      vertex 30 7.5 5
      vertex 25 12.5 5
      vertex 25 7.5 5
    endloop
  endfacet
  facet normal 1 -0 0
    outer loop
      vertex 30 7.5 5
      vertex 30 12.5 0
      vertex 30 12.5 5
    endloop
  endfacet
  facet normal 1 0 0
    outer loop
      vertex 30 12.5 0
      vertex 30 7.5 5
      vertex 30 7.5 0
    endloop
  endfacet
  facet normal 0 1 -0
    outer loop
      vertex 30 12.5 0
      vertex 25 12.5 5
      vertex 30 12.5 5
    endloop
  endfacet
  facet normal 0 1 0
    outer loop
      vertex 25 12.5 5
      vertex 30 12.5 0
      vertex 25 12.5 0
    endloop
  endfacet
  facet normal 0 -1 0
    outer loop
      vertex 25 7.5 0
      vertex 30 7.5 5
      vertex 25 7.5 5
    endloop
  endfacet
  facet normal 0 -1 -0
    outer loop
      vertex 30 7.5 5
      vertex 25 7.5 0
      vertex 30 7.5 0
    endloop
  endfacet
  facet normal -1 0 0
    outer loop
      vertex -27.5 20 15
      vertex -27.5 25 22.5
      vertex -27.5 25 15
    endloop
  endfacet
  facet normal -1 -0 0
    outer loop
      vertex -27.5 25 22.5
      vertex -27.5 20 15
      vertex -27.5 20 22.5
    endloop
  endfacet
  facet normal -0 0 1
    outer loop
      vertex -27.5 25 22.5
      vertex -17.5 20 22.5
      vertex -17.5 25 22.5
    endloop
  endfacet
  facet normal 0 0 1
    outer loop
      vertex -17.5 20 22.5
      vertex -27.5 25 22.5
      vertex -27.5 20 22.5
    endloop
  endfacet
  facet normal 1 -0 0
    outer loop
      vertex -17.5 20 22.5
      vertex -17.5 25 15
      vertex -17.5 25 22.5
    endloop
  endfacet
  facet normal 1 0 0
    outer loop
      vertex -17.5 25 15
      vertex -17.5 20 22.5
      vertex -17.5 20 15
    endloop
  endfacet
  facet normal 0 1 -0
    outer loop
      vertex -15 25 5
      vertex -17.5 25 15
      vertex -15 25 15
    endloop
  endfacet
  facet normal 0 1 0
    outer loop
      vertex -17.5 25 15
      vertex -15 25 5
      vertex -27.5 25 15
    endloop
  endfacet
  facet normal 0 1 0
    outer loop
      vertex -30 25 0
      vertex -27.5 25 15
      vertex -15 25 5
    endloop
  endfacet
  facet normal 0 1 0
    outer loop
      vertex -30 25 0
      vertex -15 25 5
      vertex -15 25 0
    endloop
  endfacet
  facet normal 0 1 0
    outer loop
      vertex -27.5 25 15
      vertex -30 25 0
      vertex -30 25 15
    endloop
  endfacet
  facet normal 0 1 -0
    outer loop
      vertex -17.5 25 15
      vertex -27.5 25 22.5
      vertex -17.5 25 22.5
    endloop
  endfacet
  facet normal 0 1 0
    outer loop
      vertex -27.5 25 22.5
      vertex -17.5 25 15
      vertex -27.5 25 15
    endloop
  endfacet
  facet normal 0 -1 0
    outer loop
      vertex -27.5 20 15
      vertex -17.5 20 22.5
      vertex -27.5 20 22.5
    endloop
  endfacet
  facet normal 0 -1 -0
    outer loop
      vertex -17.5 20 22.5
      vertex -27.5 20 15
      vertex -17.5 20 15
    endloop
  endfacet
  facet normal 1 -0 0
    outer loop
      vertex -15 15 15
      vertex -15 25 5
      vertex -15 25 15
    endloop
  endfacet
  facet normal 1 0 0
    outer loop
      vertex -15 25 5
      vertex -15 15 15
      vertex -15 15 5
    endloop
  endfacet
  facet normal -1 0 0
    outer loop
      vertex -15 25 0
      vertex -15 30 5
      vertex -15 30 0
    endloop
  endfacet
  facet normal -1 -0 0
    outer loop
      vertex -15 30 5
      vertex -15 25 0
      vertex -15 25 5
    endloop
  endfacet
  facet normal 0 0 1
    outer loop
      vertex -15 25 5
      vertex -10 30 5
      vertex -15 30 5
    endloop
  endfacet
  facet normal -0 0 1
    outer loop
      vertex -10 20 5
      vertex -7.5 15 5
      vertex -7.5 20 5
    endloop
  endfacet
  facet normal 0 0 1
    outer loop
      vertex -10 30 5
      vertex -15 25 5
      vertex -10 20 5
    endloop
  endfacet
  facet normal 0 0 1
    outer loop
      vertex -15 15 5
      vertex -10 20 5
      vertex -15 25 5
    endloop
  endfacet
  facet normal 0 0 1
    outer loop
      vertex -10 20 5
      vertex -15 15 5
      vertex -7.5 15 5
    endloop
  endfacet
  facet normal 1 -0 0
    outer loop
      vertex -7.5 15 5
      vertex -7.5 20 0
      vertex -7.5 20 5
    endloop
  endfacet
  facet normal 1 0 0
    outer loop
      vertex -7.5 20 0
      vertex -7.5 15 5
      vertex -7.5 15 0
    endloop
  endfacet
  facet normal 0 1 -0
    outer loop
      vertex -10 30 0
      vertex -15 30 5
      vertex -10 30 5
    endloop
  endfacet
  facet normal 0 1 0
    outer loop
      vertex -15 30 5
      vertex -10 30 0
      vertex -15 30 0
    endloop
  endfacet
  facet normal -1 0 0
    outer loop
      vertex -10 30 5
      vertex -10 35 0
      vertex -10 30 0
    endloop
  endfacet
  facet normal -1 0 0
    outer loop
      vertex -10 35 0
      vertex -10 30 5
      vertex -10 35 15
    endloop
  endfacet
  facet normal -1 0 0
    outer loop
      vertex -10 20 15
      vertex -10 30 5
      vertex -10 20 5
    endloop
  endfacet
  facet normal -1 0 0
    outer loop
      vertex -10 30 5
      vertex -10 20 15
      vertex -10 35 15
    endloop
  endfacet
  facet normal -0 0 1
    outer loop
      vertex -10 35 15
      vertex -5 20 15
      vertex -5 35 15
    endloop
  endfacet
  facet normal 0 0 1
    outer loop
      vertex -5 20 15
      vertex -10 35 15
      vertex -10 20 15
    endloop
  endfacet
  facet normal 1 0 0
    outer loop
      vertex -5 35 15
      vertex -5 27.5 5
      vertex -5 35 0
    endloop
  endfacet
  facet normal 1 -0 0
    outer loop
      vertex -5 20 15
      vertex -5 27.5 5
      vertex -5 35 15
    endloop
  endfacet
  facet normal 1 0 0
    outer loop
      vertex -5 27.5 5
      vertex -5 20 15
      vertex -5 22.5 5
    endloop
  endfacet
  facet normal 1 0 0
    outer loop
      vertex -5 20 0
      vertex -5 22.5 5
      vertex -5 20 15
    endloop
  endfacet
  facet normal 1 0 0
    outer loop
      vertex -5 22.5 5
      vertex -5 20 0
      vertex -5 22.5 0
    endloop
  endfacet
  facet normal 1 0 0
    outer loop
      vertex -5 35 0
      vertex -5 27.5 5
      vertex -5 27.5 0
    endloop
  endfacet
  facet normal 0 -1 0
    outer loop
      vertex -7.5 20 5
      vertex -10 20 15
      vertex -10 20 5
    endloop
  endfacet
  facet normal 0 -1 0
    outer loop
      vertex -10 20 15
      vertex -7.5 20 5
      vertex -5 20 15
    endloop
  endfacet
  facet normal 0 -1 0
    outer loop
      vertex -5 20 0
      vertex -7.5 20 5
      vertex -7.5 20 0
    endloop
  endfacet
  facet normal 0 -1 0
    outer loop
      vertex -7.5 20 5
      vertex -5 20 0
      vertex -5 20 15
    endloop
  endfacet
  facet normal 0 1 -0
    outer loop
      vertex -5 35 0
      vertex -10 35 15
      vertex -5 35 15
    endloop
  endfacet
  facet normal 0 1 0
    outer loop
      vertex -10 35 15
      vertex -5 35 0
      vertex -10 35 0
    endloop
  endfacet
  facet normal -0 0 1
    outer loop
      vertex -5 27.5 5
      vertex 0 25 5
      vertex 0 27.5 5
    endloop
  endfacet
  facet normal 0 0 1
    outer loop
      vertex -5 22.5 5
      vertex 0 25 5
      vertex -5 27.5 5
    endloop
  endfacet
  facet normal 0 0 1
    outer loop
      vertex 0 25 5
      vertex -5 22.5 5
      vertex 0 22.5 5
    endloop
  endfacet
  facet normal 0 1 -0
    outer loop
      vertex 0 27.5 0
      vertex -5 27.5 5
      vertex 0 27.5 5
    endloop
  endfacet
  facet normal 0 1 0
    outer loop
      vertex -5 27.5 5
      vertex 0 27.5 0
      vertex -5 27.5 0
    endloop
  endfacet
  facet normal 0 -1 0
    outer loop
      vertex -5 22.5 0
      vertex 0 22.5 5
      vertex -5 22.5 5
    endloop
  endfacet
  facet normal 0 -1 -0
    outer loop
      vertex 0 22.5 5
      vertex -5 22.5 0
      vertex 0 22.5 0
    endloop
  endfacet
  facet normal -1 0 0
    outer loop
      vertex 2.5 20 15
      vertex 2.5 25 20
      vertex 2.5 25 15
    endloop
  endfacet
  facet normal -1 -0 0
    outer loop
      vertex 2.5 25 20
      vertex 2.5 20 15
      vertex 2.5 20 20
    endloop
  endfacet
  facet normal -0 0 1
    outer loop
      vertex 2.5 25 20
      vertex 12.5 20 20
      vertex 12.5 25 20
    endloop
  endfacet
  facet normal 0 0 1
    outer loop
      vertex 12.5 20 20
      vertex 2.5 25 20
      vertex 2.5 20 20
    endloop
  endfacet
  facet normal 1 -0 0
    outer loop
      vertex 12.5 20 20
      vertex 12.5 25 15
      vertex 12.5 25 20
    endloop
  endfacet
  facet normal 1 0 0
    outer loop
      vertex 12.5 25 15
      vertex 12.5 20 20
      vertex 12.5 20 15
    endloop
  endfacet
  facet normal 0 1 -0
    outer loop
      vertex 30 25 0
      vertex 27.5 25 15
      vertex 30 25 15
    endloop
  endfacet
  facet normal 0 1 0
    outer loop
      vertex 27.5 25 15
      vertex 30 25 0
      vertex 17.5 25 15
    endloop
  endfacet
  facet normal 0 1 0
    outer loop
      vertex 17.5 25 15
      vertex 30 25 0
      vertex 12.5 25 15
    endloop
  endfacet
  facet normal 0 1 0
    outer loop
      vertex 0 25 0
      vertex 12.5 25 15
      vertex 30 25 0
    endloop
  endfacet
  facet normal 0 1 0
    outer loop
      vertex 2.5 25 15
      vertex 0 25 5
      vertex 0 25 15
    endloop
  endfacet
  facet normal 0 1 0
    outer loop
      vertex 12.5 25 15
      vertex 0 25 5
      vertex 2.5 25 15
    endloop
  endfacet
  facet normal 0 1 0
    outer loop
      vertex 12.5 25 15
      vertex 0 25 0
      vertex 0 25 5
    endloop
  endfacet
  facet normal 0 1 -0
    outer loop
      vertex 27.5 25 15
      vertex 17.5 25 22.5
      vertex 27.5 25 22.5
    endloop
  endfacet
  facet normal 0 1 0
    outer loop
      vertex 17.5 25 22.5
      vertex 27.5 25 15
      vertex 17.5 25 15
    endloop
  endfacet
  facet normal 0 1 -0
    outer loop
      vertex 12.5 25 15
      vertex 2.5 25 20
      vertex 12.5 25 20
    endloop
  endfacet
  facet normal 0 1 0
    outer loop
      vertex 2.5 25 20
      vertex 12.5 25 15
      vertex 2.5 25 15
    endloop
  endfacet
  facet normal 0 -1 0
    outer loop
      vertex 2.5 20 15
      vertex 12.5 20 20
      vertex 2.5 20 20
    endloop
  endfacet
  facet normal 0 -1 -0
    outer loop
      vertex 12.5 20 20
      vertex 2.5 20 15
      vertex 12.5 20 15
    endloop
  endfacet
  facet normal -1 0 0
    outer loop
      vertex 17.5 20 15
      vertex 17.5 25 22.5
      vertex 17.5 25 15
    endloop
  endfacet
  facet normal -1 -0 0
    outer loop
      vertex 17.5 25 22.5
      vertex 17.5 20 15
      vertex 17.5 20 22.5
    endloop
  endfacet
  facet normal -0 0 1
    outer loop
      vertex 17.5 25 22.5
      vertex 27.5 20 22.5
      vertex 27.5 25 22.5
    endloop
  endfacet
  facet normal 0 0 1
    outer loop
      vertex 27.5 20 22.5
      vertex 17.5 25 22.5
      vertex 17.5 20 22.5
    endloop
  endfacet
  facet normal 1 -0 0
    outer loop
      vertex 27.5 20 22.5
      vertex 27.5 25 15
      vertex 27.5 25 22.5
    endloop
  endfacet
  facet normal 1 0 0
    outer loop
      vertex 27.5 25 15
      vertex 27.5 20 22.5
      vertex 27.5 20 15
    endloop
  endfacet
  facet normal 0 -1 0
    outer loop
      vertex 17.5 20 15
      vertex 27.5 20 22.5
      vertex 17.5 20 22.5
    endloop
  endfacet
  facet normal 0 -1 -0
    outer loop
      vertex 27.5 20 22.5
      vertex 17.5 20 15
      vertex 27.5 20 15
    endloop
  endfacet
  facet normal 1 -0 0
    outer loop
      vertex 30 15 15
      vertex 30 25 0
      vertex 30 25 15
    endloop
  endfacet
  facet normal 1 0 0
    outer loop
      vertex 30 25 0
      vertex 30 15 15
      vertex 30 15 0
    endloop
  endfacet
endsolid OpenSCAD_Model
