solid OpenSCAD_Model
  facet normal -1 0 0
    outer loop
      vertex 0 7.5 0
      vertex 0 25 15
      vertex 0 25 0
    endloop
  endfacet
  facet normal -1 -0 0
    outer loop
      vertex 0 25 15
      vertex 0 7.5 0
      vertex 0 7.5 15
    endloop
  endfacet
  facet normal -0 0 1
    outer loop
      vertex 0 25 15
      vertex 17.5 17.5 15
      vertex 17.5 25 15
    endloop
  endfacet
  facet normal 0 0 1
    outer loop
      vertex 13 12 15
      vertex 7.5 7.5 15
      vertex 13 0 15
    endloop
  endfacet
  facet normal 0 0 1
    outer loop
      vertex 17.5 17.5 15
      vertex 0 25 15
      vertex 13 12 15
    endloop
  endfacet
  facet normal 0 0 1
    outer loop
      vertex 13 12 15
      vertex 0 25 15
      vertex 7.5 7.5 15
    endloop
  endfacet
  facet normal 0 0 1
    outer loop
      vertex 7.5 7.5 15
      vertex 0 25 15
      vertex 0 7.5 15
    endloop
  endfacet
  facet normal -0 0 1
    outer loop
      vertex 17.5 17.5 15
      vertex 25 12 15
      vertex 25 17.5 15
    endloop
  endfacet
  facet normal 0 0 1
    outer loop
      vertex 25 12 15
      vertex 17.5 17.5 15
      vertex 13 12 15
    endloop
  endfacet
  facet normal 0 0 1
    outer loop
      vertex 13 0 15
      vertex 7.5 7.5 15
      vertex 7.5 0 15
    endloop
  endfacet
  facet normal 1 0 0
    outer loop
      vertex 25 10 5
      vertex 25 0 5
      vertex 25 10 1
    endloop
  endfacet
  facet normal 1 0 0
    outer loop
      vertex 25 12 1
      vertex 25 17.5 15
      vertex 25 12 15
    endloop
  endfacet
  facet normal 1 0 0
    outer loop
      vertex 25 17.5 15
      vertex 25 12 1
      vertex 25 17.5 0
    endloop
  endfacet
  facet normal 1 -0 0
    outer loop
      vertex 25 10 1
      vertex 25 17.5 0
      vertex 25 12 1
    endloop
  endfacet
  facet normal 1 0 0
    outer loop
      vertex 25 10 1
      vertex 25 0 0
      vertex 25 17.5 0
    endloop
  endfacet
  facet normal 1 0 0
    outer loop
      vertex 25 0 0
      vertex 25 10 1
      vertex 25 0 5
    endloop
  endfacet
  facet normal 0 1 -0
    outer loop
      vertex 17.5 25 0
      vertex 0 25 15
      vertex 17.5 25 15
    endloop
  endfacet
  facet normal 0 1 0
    outer loop
      vertex 0 25 15
      vertex 17.5 25 0
      vertex 0 25 0
    endloop
  endfacet
  facet normal 0 0 -1
    outer loop
      vertex 25 0 0
      vertex 17.5 17.5 0
      vertex 25 17.5 0
    endloop
  endfacet
  facet normal 0 0 -1
    outer loop
      vertex 7.5 7.5 0
      vertex 25 0 0
      vertex 7.5 0 0
    endloop
  endfacet
  facet normal 0 0 -1
    outer loop
      vertex 25 0 0
      vertex 7.5 7.5 0
      vertex 17.5 17.5 0
    endloop
  endfacet
  facet normal 0 0 -1
    outer loop
      vertex 0 25 0
      vertex 17.5 17.5 0
      vertex 7.5 7.5 0
    endloop
  endfacet
  facet normal 0 0 -1
    outer loop
      vertex 0 25 0
      vertex 7.5 7.5 0
      vertex 0 7.5 0
    endloop
  endfacet
  facet normal 0 0 -1
    outer loop
      vertex 17.5 17.5 0
      vertex 0 25 0
      vertex 17.5 25 0
    endloop
  endfacet
  facet normal 0 -1 0
    outer loop
      vertex 7.5 0 15
      vertex 13 0 1
      vertex 13 0 15
    endloop
  endfacet
  facet normal 0 -1 -0
    outer loop
      vertex 13 0 1
      vertex 7.5 0 0
      vertex 15 0 1
    endloop
  endfacet
  facet normal 0 -1 0
    outer loop
      vertex 7.5 0 0
      vertex 13 0 1
      vertex 7.5 0 15
    endloop
  endfacet
  facet normal 0 -1 0
    outer loop
      vertex 15 0 1
      vertex 25 0 5
      vertex 15 0 5
    endloop
  endfacet
  facet normal 0 -1 0
    outer loop
      vertex 15 0 1
      vertex 25 0 0
      vertex 25 0 5
    endloop
  endfacet
  facet normal 0 -1 0
    outer loop
      vertex 25 0 0
      vertex 15 0 1
      vertex 7.5 0 0
    endloop
  endfacet
  facet normal 1 -0 0
    outer loop
      vertex 13 0 15
      vertex 13 12 1
      vertex 13 12 15
    endloop
  endfacet
  facet normal 1 0 0
    outer loop
      vertex 13 12 1
      vertex 13 0 15
      vertex 13 0 1
    endloop
  endfacet
  facet normal 0 -1 0
    outer loop
      vertex 13 12 1
      vertex 25 12 15
      vertex 13 12 15
    endloop
  endfacet
  facet normal 0 -1 -0
    outer loop
      vertex 25 12 15
      vertex 13 12 1
      vertex 25 12 1
    endloop
  endfacet
  facet normal -1 0 0
    outer loop
      vertex 7.5 0 0
      vertex 7.5 7.5 15
      vertex 7.5 7.5 0
    endloop
  endfacet
  facet normal -1 -0 0
    outer loop
      vertex 7.5 7.5 15
      vertex 7.5 0 0
      vertex 7.5 0 15
    endloop
  endfacet
  facet normal 0 -1 0
    outer loop
      vertex 0 7.5 0
      vertex 7.5 7.5 15
      vertex 0 7.5 15
    endloop
  endfacet
  facet normal 0 -1 -0
    outer loop
      vertex 7.5 7.5 15
      vertex 0 7.5 0
      vertex 7.5 7.5 0
    endloop
  endfacet
  facet normal 1 -0 0
    outer loop
      vertex 17.5 17.5 15
      vertex 17.5 25 0
      vertex 17.5 25 15
    endloop
  endfacet
  facet normal 1 0 0
    outer loop
      vertex 17.5 25 0
      vertex 17.5 17.5 15
      vertex 17.5 17.5 0
    endloop
  endfacet
  facet normal 0 1 -0
    outer loop
      vertex 25 17.5 0
      vertex 17.5 17.5 15
      vertex 25 17.5 15
    endloop
  endfacet
  facet normal 0 1 0
    outer loop
      vertex 17.5 17.5 15
      vertex 25 17.5 0
      vertex 17.5 17.5 0
    endloop
  endfacet
  facet normal 0 0 1
    outer loop
      vertex 25 12 1
      vertex 15 10 1
      vertex 25 10 1
    endloop
  endfacet
  facet normal -0 0 1
    outer loop
      vertex 13 12 1
      vertex 15 10 1
      vertex 25 12 1
    endloop
  endfacet
  facet normal 0 0 1
    outer loop
      vertex 13 0 1
      vertex 15 10 1
      vertex 13 12 1
    endloop
  endfacet
  facet normal 0 0 1
    outer loop
      vertex 15 10 1
      vertex 13 0 1
      vertex 15 0 1
    endloop
  endfacet
  facet normal -1 0 0
    outer loop
      vertex 15 0 1
      vertex 15 10 5
      vertex 15 10 1
    endloop
  endfacet
  facet normal -1 -0 0
    outer loop
      vertex 15 10 5
      vertex 15 0 1
      vertex 15 0 5
    endloop
  endfacet
  facet normal -0 0 1
    outer loop
      vertex 15 10 5
      vertex 25 0 5
      vertex 25 10 5
    endloop
  endfacet
  facet normal 0 0 1
    outer loop
      vertex 25 0 5
      vertex 15 10 5
      vertex 15 0 5
    endloop
  endfacet
  facet normal 0 1 -0
    outer loop
      vertex 25 10 1
      vertex 15 10 5
      vertex 25 10 5
    endloop
  endfacet
  facet normal 0 1 0
    outer loop
      vertex 15 10 5
      vertex 25 10 1
      vertex 15 10 1
    endloop
  endfacet
endsolid OpenSCAD_Model
