solid OpenSCAD_Model
  facet normal -1 0 0
    outer loop
      vertex 0 0 0
      vertex 0 25 15
      vertex 0 25 0
    endloop
  endfacet
  facet normal -1 -0 0
    outer loop
      vertex 0 25 15
      vertex 0 0 0
      vertex 0 0 15
    endloop
  endfacet
  facet normal 0 0 1
    outer loop
      vertex 25 25 15
      vertex 18.5 18.5 15
      vertex 25 0 15
    endloop
  endfacet
  facet normal 0 0 1
    outer loop
      vertex 25 25 15
      vertex 6.5 18.5 15
      vertex 18.5 18.5 15
    endloop
  endfacet
  facet normal 0 0 1
    outer loop
      vertex 6.5 18.5 15
      vertex 0 25 15
      vertex 6.5 6.5 15
    endloop
  endfacet
  facet normal -0 0 1
    outer loop
      vertex 0 25 15
      vertex 6.5 18.5 15
      vertex 25 25 15
    endloop
  endfacet
  facet normal -0 0 1
    outer loop
      vertex 18.5 6.5 15
      vertex 25 0 15
      vertex 18.5 18.5 15
    endloop
  endfacet
  facet normal -0 0 1
    outer loop
      vertex 6.5 6.5 15
      vertex 25 0 15
      vertex 18.5 6.5 15
    endloop
  endfacet
  facet normal 0 0 1
    outer loop
      vertex 6.5 6.5 15
      vertex 0 0 15
      vertex 25 0 15
    endloop
  endfacet
  facet normal 0 0 1
    outer loop
      vertex 0 0 15
      vertex 6.5 6.5 15
      vertex 0 25 15
    endloop
  endfacet
  facet normal 1 -0 0
    outer loop
      vertex 25 0 15
      vertex 25 25 0
      vertex 25 25 15
    endloop
  endfacet
  facet normal 1 0 0
    outer loop
      vertex 25 25 0
      vertex 25 0 15
      vertex 25 0 0
    endloop
  endfacet
  facet normal 0 0 -1
    outer loop
      vertex 0 0 0
      vertex 25 25 0
      vertex 25 0 0
    endloop
  endfacet
  facet normal -0 0 -1
    outer loop
      vertex 25 25 0
      vertex 0 0 0
      vertex 0 25 0
    endloop
  endfacet
  facet normal 0 -1 0
    outer loop
      vertex 0 0 0
      vertex 25 0 15
      vertex 0 0 15
    endloop
  endfacet
  facet normal 0 -1 -0
    outer loop
      vertex 25 0 15
      vertex 0 0 0
      vertex 25 0 0
    endloop
  endfacet
  facet normal 0 1 -0
    outer loop
      vertex 25 25 0
      vertex 0 25 15
      vertex 25 25 15
    endloop
  endfacet
  facet normal 0 1 0
    outer loop
      vertex 0 25 15
      vertex 25 25 0
      vertex 0 25 0
    endloop
  endfacet
  facet normal 1 -0 0
    outer loop
      vertex 6.5 6.5 15
      vertex 6.5 18.5 1
      vertex 6.5 18.5 15
    endloop
  endfacet
  facet normal 1 0 0
    outer loop
      vertex 6.5 18.5 1
      vertex 6.5 6.5 15
      vertex 6.5 6.5 1
    endloop
  endfacet
  facet normal -1 0 0
    outer loop
      vertex 18.5 6.5 1
      vertex 18.5 18.5 15
      vertex 18.5 18.5 1
    endloop
  endfacet
  facet normal -1 -0 0
    outer loop
      vertex 18.5 18.5 15
      vertex 18.5 6.5 1
      vertex 18.5 6.5 15
    endloop
  endfacet
  facet normal 0 -1 0
    outer loop
      vertex 6.5 18.5 1
      vertex 18.5 18.5 15
      vertex 6.5 18.5 15
    endloop
  endfacet
  facet normal 0 -1 -0
    outer loop
      vertex 18.5 18.5 15
      vertex 6.5 18.5 1
      vertex 18.5 18.5 1
    endloop
  endfacet
  facet normal 0 1 -0
    outer loop
      vertex 18.5 6.5 1
      vertex 6.5 6.5 15
      vertex 18.5 6.5 15
    endloop
  endfacet
  facet normal 0 1 0
    outer loop
      vertex 6.5 6.5 15
      vertex 18.5 6.5 1
      vertex 6.5 6.5 1
    endloop
  endfacet
  facet normal 0 0 1
    outer loop
      vertex 18.5 18.5 1
      vertex 17.5 17.5 1
      vertex 18.5 6.5 1
    endloop
  endfacet
  facet normal 0 0 1
    outer loop
      vertex 18.5 18.5 1
      vertex 7.5 17.5 1
      vertex 17.5 17.5 1
    endloop
  endfacet
  facet normal 0 0 1
    outer loop
      vertex 7.5 17.5 1
      vertex 6.5 18.5 1
      vertex 7.5 7.5 1
    endloop
  endfacet
  facet normal -0 0 1
    outer loop
      vertex 6.5 18.5 1
      vertex 7.5 17.5 1
      vertex 18.5 18.5 1
    endloop
  endfacet
  facet normal -0 0 1
    outer loop
      vertex 17.5 7.5 1
      vertex 18.5 6.5 1
      vertex 17.5 17.5 1
    endloop
  endfacet
  facet normal -0 0 1
    outer loop
      vertex 7.5 7.5 1
      vertex 18.5 6.5 1
      vertex 17.5 7.5 1
    endloop
  endfacet
  facet normal 0 0 1
    outer loop
      vertex 7.5 7.5 1
      vertex 6.5 6.5 1
      vertex 18.5 6.5 1
    endloop
  endfacet
  facet normal 0 0 1
    outer loop
      vertex 6.5 6.5 1
      vertex 7.5 7.5 1
      vertex 6.5 18.5 1
    endloop
  endfacet
  facet normal -1 0 0
    outer loop
      vertex 7.5 7.5 1
      vertex 7.5 17.5 30
      vertex 7.5 17.5 1
    endloop
  endfacet
  facet normal -1 -0 0
    outer loop
      vertex 7.5 17.5 30
      vertex 7.5 7.5 1
      vertex 7.5 7.5 30
    endloop
  endfacet
  facet normal -0 0 1
    outer loop
      vertex 7.5 17.5 30
      vertex 17.5 7.5 30
      vertex 17.5 17.5 30
    endloop
  endfacet
  facet normal 0 0 1
    outer loop
      vertex 17.5 7.5 30
      vertex 7.5 17.5 30
      vertex 7.5 7.5 30
    endloop
  endfacet
  facet normal 1 -0 0
    outer loop
      vertex 17.5 7.5 30
      vertex 17.5 17.5 1
      vertex 17.5 17.5 30
    endloop
  endfacet
  facet normal 1 0 0
    outer loop
      vertex 17.5 17.5 1
      vertex 17.5 7.5 30
      vertex 17.5 7.5 1
    endloop
  endfacet
  facet normal 0 -1 0
    outer loop
      vertex 7.5 7.5 1
      vertex 17.5 7.5 30
      vertex 7.5 7.5 30
    endloop
  endfacet
  facet normal 0 -1 -0
    outer loop
      vertex 17.5 7.5 30
      vertex 7.5 7.5 1
      vertex 17.5 7.5 1
    endloop
  endfacet
  facet normal 0 1 -0
    outer loop
      vertex 17.5 17.5 1
      vertex 7.5 17.5 30
      vertex 17.5 17.5 30
    endloop
  endfacet
  facet normal 0 1 0
    outer loop
      vertex 7.5 17.5 30
      vertex 17.5 17.5 1
      vertex 7.5 17.5 1
    endloop
  endfacet
endsolid OpenSCAD_Model
