solid OpenSCAD_Model
  facet normal -1 0 0
    outer loop
      vertex 0 7.5 0
      vertex 0 25 1
      vertex 0 25 0
    endloop
  endfacet
  facet normal -1 -0 0
    outer loop
      vertex 0 25 1
      vertex 0 7.5 0
      vertex 0 7.5 1
    endloop
  endfacet
  facet normal -0 0 1
    outer loop
      vertex 7.5 7.5 1
      vertex 25 0 1
      vertex 25 7.5 1
    endloop
  endfacet
  facet normal 0 0 1
    outer loop
      vertex 25 0 1
      vertex 7.5 7.5 1
      vertex 7.5 0 1
    endloop
  endfacet
  facet normal 0 0 1
    outer loop
      vertex 25 25 1
      vertex 7.5 17.5 1
      vertex 25 17.5 1
    endloop
  endfacet
  facet normal -0 0 1
    outer loop
      vertex 0 25 1
      vertex 7.5 17.5 1
      vertex 25 25 1
    endloop
  endfacet
  facet normal 0 0 1
    outer loop
      vertex 0 7.5 1
      vertex 7.5 17.5 1
      vertex 0 25 1
    endloop
  endfacet
  facet normal 0 0 1
    outer loop
      vertex 7.5 17.5 1
      vertex 0 7.5 1
      vertex 7.5 7.5 1
    endloop
  endfacet
  facet normal 1 0 0
    outer loop
      vertex 25 17.5 10
      vertex 25 7.5 10
      vertex 25 17.5 1
    endloop
  endfacet
  facet normal 1 -0 0
    outer loop
      vertex 25 17.5 1
      vertex 25 25 0
      vertex 25 25 1
    endloop
  endfacet
  facet normal 1 0 0
    outer loop
      vertex 25 7.5 1
      vertex 25 17.5 1
      vertex 25 7.5 10
    endloop
  endfacet
  facet normal 1 -0 0
    outer loop
      vertex 25 7.5 1
      vertex 25 25 0
      vertex 25 17.5 1
    endloop
  endfacet
  facet normal 1 0 0
    outer loop
      vertex 25 0 0
      vertex 25 7.5 1
      vertex 25 0 1
    endloop
  endfacet
  facet normal 1 0 0
    outer loop
      vertex 25 7.5 1
      vertex 25 0 0
      vertex 25 25 0
    endloop
  endfacet
  facet normal 0 1 -0
    outer loop
      vertex 25 25 0
      vertex 0 25 1
      vertex 25 25 1
    endloop
  endfacet
  facet normal 0 1 0
    outer loop
      vertex 0 25 1
      vertex 25 25 0
      vertex 0 25 0
    endloop
  endfacet
  facet normal 0 0 -1
    outer loop
      vertex 7.5 7.5 0
      vertex 25 0 0
      vertex 7.5 0 0
    endloop
  endfacet
  facet normal 0 0 -1
    outer loop
      vertex 25 0 0
      vertex 7.5 7.5 0
      vertex 25 25 0
    endloop
  endfacet
  facet normal 0 0 -1
    outer loop
      vertex 0 25 0
      vertex 7.5 7.5 0
      vertex 0 7.5 0
    endloop
  endfacet
  facet normal 0 0 -1
    outer loop
      vertex 7.5 7.5 0
      vertex 0 25 0
      vertex 25 25 0
    endloop
  endfacet
  facet normal 0 -1 0
    outer loop
      vertex 7.5 0 0
      vertex 25 0 1
      vertex 7.5 0 1
    endloop
  endfacet
  facet normal 0 -1 -0
    outer loop
      vertex 25 0 1
      vertex 7.5 0 0
      vertex 25 0 0
    endloop
  endfacet
  facet normal -1 0 0
    outer loop
      vertex 7.5 7.5 1
      vertex 7.5 17.5 10
      vertex 7.5 17.5 1
    endloop
  endfacet
  facet normal -1 -0 0
    outer loop
      vertex 7.5 17.5 10
      vertex 7.5 7.5 1
      vertex 7.5 7.5 10
    endloop
  endfacet
  facet normal -0 0 1
    outer loop
      vertex 7.5 17.5 10
      vertex 25 7.5 10
      vertex 25 17.5 10
    endloop
  endfacet
  facet normal 0 0 1
    outer loop
      vertex 25 7.5 10
      vertex 7.5 17.5 10
      vertex 7.5 7.5 10
    endloop
  endfacet
  facet normal 0 -1 0
    outer loop
      vertex 7.5 7.5 1
      vertex 25 7.5 10
      vertex 7.5 7.5 10
    endloop
  endfacet
  facet normal 0 -1 -0
    outer loop
      vertex 25 7.5 10
      vertex 7.5 7.5 1
      vertex 25 7.5 1
    endloop
  endfacet
  facet normal 0 1 -0
    outer loop
      vertex 25 17.5 1
      vertex 7.5 17.5 10
      vertex 25 17.5 10
    endloop
  endfacet
  facet normal 0 1 0
    outer loop
      vertex 7.5 17.5 10
      vertex 25 17.5 1
      vertex 7.5 17.5 1
    endloop
  endfacet
  facet normal -1 0 0
    outer loop
      vertex 7.5 0 0
      vertex 7.5 7.5 1
      vertex 7.5 7.5 0
    endloop
  endfacet
  facet normal -1 -0 0
    outer loop
      vertex 7.5 7.5 1
      vertex 7.5 0 0
      vertex 7.5 0 1
    endloop
  endfacet
  facet normal 0 -1 0
    outer loop
      vertex 0 7.5 0
      vertex 7.5 7.5 1
      vertex 0 7.5 1
    endloop
  endfacet
  facet normal 0 -1 -0
    outer loop
      vertex 7.5 7.5 1
      vertex 0 7.5 0
      vertex 7.5 7.5 0
    endloop
  endfacet
endsolid OpenSCAD_Model
